<svg width="328" height="328" viewBox="0 0 328 328" fill="none" xmlns="http://www.w3.org/2000/svg">
<path d="M156.39 224.044H29.7233C28.7304 224.042 27.7787 223.647 27.0766 222.945C26.3745 222.243 25.9793 221.291 25.9775 220.298V42.2398C25.9879 41.2526 26.3869 40.3093 27.0881 39.6142C27.7892 38.9192 28.736 38.5285 29.7233 38.5269H156.39C157.383 38.5286 158.334 38.924 159.035 39.6263C159.736 40.3286 160.13 41.2803 160.13 42.2726V220.298C160.13 221.29 159.736 222.242 159.035 222.944C158.334 223.646 157.383 224.042 156.39 224.044ZM29.7233 38.6581C28.7739 38.6598 27.8639 39.0377 27.1925 39.709C26.5212 40.3804 26.1433 41.2904 26.1415 42.2398V220.298C26.1433 221.247 26.5212 222.157 27.1925 222.829C27.8639 223.5 28.7739 223.878 29.7233 223.88H156.39C157.339 223.878 158.248 223.5 158.919 222.828C159.589 222.157 159.966 221.247 159.966 220.298V42.2398C159.966 41.291 159.589 40.381 158.919 39.7094C158.248 39.0379 157.339 38.6598 156.39 38.6581H29.7233Z" fill="#E6E6E6"/>
<path d="M298.283 224.044H171.61C170.617 224.042 169.666 223.646 168.965 222.944C168.264 222.242 167.87 221.29 167.87 220.298V42.2398C167.879 41.2532 168.277 40.3099 168.977 39.6146C169.677 38.9194 170.623 38.5285 171.61 38.5269H298.283C299.27 38.5285 300.216 38.9194 300.916 39.6146C301.616 40.3099 302.014 41.2532 302.022 42.2398V220.298C302.022 221.29 301.629 222.242 300.928 222.944C300.227 223.646 299.275 224.042 298.283 224.044ZM171.61 38.6581C170.661 38.6598 169.751 39.0379 169.081 39.7094C168.411 40.381 168.034 41.291 168.034 42.2398V220.298C168.034 221.247 168.411 222.157 169.081 222.828C169.751 223.5 170.661 223.878 171.61 223.88H298.283C299.233 223.878 300.144 223.5 300.816 222.829C301.489 222.158 301.868 221.248 301.871 220.298V42.2398C301.868 41.2898 301.489 40.3798 300.816 39.7086C300.144 39.0375 299.233 38.6598 298.283 38.6581H171.61Z" fill="#E6E6E6"/>
<path d="M136.284 129.534L135.385 206.64C132.21 232.296 86.7298 252.665 86.7298 252.665C86.7298 252.665 41.2427 232.316 38.048 206.64L37.123 129.534L85.7327 113.534L136.284 129.534Z" fill="#F5F5F5"/>
<path d="M129.94 134.415L129.16 203.649C126.391 226.025 86.7232 243.789 86.7232 243.789C86.7232 243.789 47.0548 226.025 44.2931 203.649L43.46 134.415L85.8572 120.461L129.94 134.415Z" fill="#E0E0E0"/>
<path d="M127.159 138.784L126.424 202.344C123.8 223.336 86.6376 239.972 86.6376 239.972C86.6376 239.972 49.449 223.316 46.8578 202.344L46.0771 138.784L85.8242 125.703L127.159 138.784Z" stroke="white" stroke-width="3" stroke-linecap="round" stroke-linejoin="round"/>
<path d="M288.85 103.51H201.353V257.04H288.85V103.51Z" fill="#F5F5F5"/>
<path d="M282.506 109.545H207.821V257.04H282.506V109.545Z" fill="#E0E0E0"/>
<path d="M209.92 257.697C209.789 257.697 209.66 257.671 209.54 257.618C209.421 257.571 209.314 257.499 209.225 257.408C209.129 257.319 209.055 257.209 209.008 257.087C208.961 256.968 208.936 256.841 208.936 256.713C208.936 256.568 208.969 256.424 209.031 256.293C209.093 256.162 209.183 256.046 209.296 255.954C209.408 255.861 209.539 255.795 209.68 255.76C209.821 255.724 209.968 255.72 210.11 255.749L210.294 255.801L210.465 255.893C210.518 255.931 210.568 255.972 210.615 256.018C210.662 256.062 210.702 256.113 210.733 256.168C210.772 256.221 210.803 256.278 210.825 256.339C210.852 256.398 210.872 256.459 210.884 256.523C210.891 256.586 210.891 256.65 210.884 256.713C210.885 256.842 210.858 256.969 210.806 257.087C210.759 257.207 210.687 257.317 210.596 257.408C210.415 257.587 210.174 257.69 209.92 257.697Z" fill="white"/>
<path d="M208.923 232.546C208.924 232.416 208.95 232.288 209.001 232.168C209.052 232.049 209.125 231.94 209.218 231.85C209.311 231.759 209.42 231.687 209.541 231.639C209.661 231.591 209.79 231.567 209.92 231.568C210.181 231.568 210.431 231.672 210.616 231.857C210.8 232.041 210.904 232.291 210.904 232.552C210.904 232.813 210.8 233.064 210.616 233.248C210.431 233.433 210.181 233.536 209.92 233.536C209.789 233.538 209.659 233.514 209.538 233.465C209.417 233.416 209.306 233.343 209.213 233.251C209.121 233.158 209.047 233.048 208.997 232.927C208.947 232.806 208.922 232.677 208.923 232.546ZM208.923 208.385C208.923 208.124 209.027 207.874 209.211 207.689C209.396 207.505 209.646 207.401 209.907 207.401C210.168 207.401 210.418 207.505 210.603 207.689C210.787 207.874 210.891 208.124 210.891 208.385C210.891 208.646 210.787 208.897 210.603 209.081C210.418 209.266 210.168 209.369 209.907 209.369C209.646 209.369 209.396 209.266 209.211 209.081C209.027 208.897 208.923 208.646 208.923 208.385ZM208.923 184.218C208.923 183.957 209.027 183.707 209.211 183.522C209.396 183.338 209.646 183.234 209.907 183.234C210.168 183.234 210.418 183.338 210.603 183.522C210.787 183.707 210.891 183.957 210.891 184.218C210.891 184.479 210.787 184.73 210.603 184.914C210.418 185.099 210.168 185.202 209.907 185.202C209.778 185.202 209.65 185.177 209.53 185.127C209.411 185.078 209.302 185.005 209.211 184.914C209.12 184.823 209.047 184.714 208.998 184.595C208.948 184.475 208.923 184.347 208.923 184.218ZM208.923 160.051C208.923 159.79 209.027 159.54 209.211 159.355C209.396 159.171 209.646 159.067 209.907 159.067C210.168 159.067 210.418 159.171 210.603 159.355C210.787 159.54 210.891 159.79 210.891 160.051C210.891 160.312 210.787 160.562 210.603 160.747C210.418 160.932 210.168 161.035 209.907 161.035C209.648 161.035 209.4 160.933 209.216 160.752C209.032 160.57 208.926 160.323 208.923 160.064V160.051ZM208.923 135.891C208.923 135.63 209.027 135.379 209.211 135.195C209.396 135.01 209.646 134.907 209.907 134.907C210.168 134.907 210.418 135.01 210.603 135.195C210.787 135.379 210.891 135.63 210.891 135.891C210.891 136.152 210.787 136.402 210.603 136.587C210.418 136.771 210.168 136.875 209.907 136.875C209.778 136.875 209.65 136.849 209.53 136.8C209.411 136.75 209.302 136.678 209.211 136.587C209.12 136.495 209.047 136.387 208.998 136.267C208.948 136.148 208.923 136.02 208.923 135.891Z" fill="white"/>
<path d="M209.92 112.708C209.791 112.708 209.662 112.683 209.543 112.634C209.424 112.584 209.315 112.511 209.224 112.419C209.176 112.375 209.134 112.324 209.1 112.268C209.065 112.216 209.035 112.161 209.008 112.104C208.981 112.044 208.963 111.98 208.956 111.914C208.949 111.851 208.949 111.787 208.956 111.724C208.957 111.463 209.061 111.213 209.244 111.028C209.288 110.982 209.336 110.94 209.388 110.904C209.442 110.869 209.499 110.84 209.559 110.818C209.618 110.793 209.68 110.773 209.743 110.759C209.87 110.733 210.002 110.733 210.13 110.759C210.193 110.773 210.254 110.793 210.313 110.818C210.373 110.84 210.431 110.869 210.484 110.904C210.537 110.942 210.588 110.983 210.635 111.028C210.818 111.213 210.922 111.463 210.924 111.724C210.93 111.787 210.93 111.851 210.924 111.914C210.91 111.979 210.89 112.043 210.864 112.104C210.84 112.162 210.81 112.217 210.773 112.268C210.741 112.324 210.701 112.375 210.655 112.419C210.558 112.515 210.443 112.59 210.317 112.639C210.191 112.689 210.056 112.712 209.92 112.708Z" fill="white"/>
<path d="M255.761 111.724C255.761 111.463 255.865 111.212 256.049 111.028C256.234 110.843 256.484 110.74 256.745 110.74C257.006 110.74 257.257 110.843 257.441 111.028C257.626 111.212 257.729 111.463 257.729 111.724C257.729 111.985 257.626 112.235 257.441 112.42C257.257 112.604 257.006 112.708 256.745 112.708C256.484 112.708 256.234 112.604 256.049 112.42C255.865 112.235 255.761 111.985 255.761 111.724ZM232.342 111.724C232.342 111.463 232.446 111.212 232.63 111.028C232.815 110.843 233.065 110.74 233.326 110.74C233.587 110.74 233.837 110.843 234.022 111.028C234.206 111.212 234.31 111.463 234.31 111.724C234.31 111.985 234.206 112.235 234.022 112.42C233.837 112.604 233.587 112.708 233.326 112.708C233.065 112.708 232.815 112.604 232.63 112.42C232.446 112.235 232.342 111.985 232.342 111.724Z" fill="white"/>
<path d="M280.164 112.708C280.101 112.714 280.037 112.714 279.974 112.708L279.791 112.655L279.62 112.563C279.567 112.525 279.516 112.484 279.469 112.439C279.284 112.254 279.181 112.004 279.18 111.743C279.182 111.483 279.286 111.233 279.469 111.048C279.515 111.003 279.565 110.963 279.62 110.93C279.672 110.89 279.729 110.859 279.791 110.838C279.849 110.811 279.911 110.792 279.974 110.779C280.102 110.753 280.234 110.753 280.361 110.779L280.545 110.838C280.604 110.859 280.66 110.891 280.709 110.93C280.765 110.962 280.816 111.001 280.86 111.048C281.043 111.233 281.147 111.483 281.148 111.743C281.148 112.004 281.044 112.254 280.86 112.439C280.814 112.485 280.763 112.527 280.709 112.563C280.657 112.598 280.602 112.628 280.545 112.655L280.361 112.708C280.296 112.714 280.23 112.714 280.164 112.708Z" fill="white"/>
<path d="M279.18 232.546C279.18 232.285 279.284 232.035 279.469 231.85C279.653 231.665 279.903 231.562 280.164 231.562C280.425 231.562 280.676 231.665 280.86 231.85C281.045 232.035 281.148 232.285 281.148 232.546C281.148 232.807 281.045 233.057 280.86 233.242C280.676 233.426 280.425 233.53 280.164 233.53C279.903 233.53 279.653 233.426 279.469 233.242C279.284 233.057 279.18 232.807 279.18 232.546ZM279.18 208.385C279.18 208.124 279.284 207.874 279.469 207.69C279.653 207.505 279.903 207.401 280.164 207.401C280.425 207.401 280.676 207.505 280.86 207.69C281.045 207.874 281.148 208.124 281.148 208.385C281.148 208.646 281.045 208.897 280.86 209.081C280.676 209.266 280.425 209.369 280.164 209.369C279.903 209.369 279.653 209.266 279.469 209.081C279.284 208.897 279.18 208.646 279.18 208.385ZM279.18 184.218C279.18 183.957 279.284 183.707 279.469 183.522C279.653 183.338 279.903 183.234 280.164 183.234C280.425 183.234 280.676 183.338 280.86 183.522C281.045 183.707 281.148 183.957 281.148 184.218C281.148 184.479 281.045 184.73 280.86 184.914C280.676 185.099 280.425 185.202 280.164 185.202C280.035 185.202 279.907 185.177 279.788 185.127C279.668 185.078 279.56 185.005 279.469 184.914C279.377 184.823 279.305 184.714 279.255 184.595C279.206 184.475 279.18 184.347 279.18 184.218ZM279.18 160.051C279.18 159.79 279.284 159.54 279.469 159.355C279.653 159.171 279.903 159.067 280.164 159.067C280.425 159.067 280.676 159.171 280.86 159.355C281.045 159.54 281.148 159.79 281.148 160.051C281.148 160.312 281.045 160.562 280.86 160.747C280.676 160.932 280.425 161.035 280.164 161.035C279.906 161.035 279.657 160.933 279.473 160.752C279.289 160.57 279.184 160.323 279.18 160.064V160.051ZM279.18 135.891C279.18 135.63 279.284 135.379 279.469 135.195C279.653 135.01 279.903 134.907 280.164 134.907C280.425 134.907 280.676 135.01 280.86 135.195C281.045 135.379 281.148 135.63 281.148 135.891C281.148 136.152 281.045 136.402 280.86 136.587C280.676 136.771 280.425 136.875 280.164 136.875C280.035 136.875 279.907 136.849 279.788 136.8C279.668 136.75 279.56 136.678 279.469 136.587C279.377 136.495 279.305 136.387 279.255 136.267C279.206 136.148 279.18 136.02 279.18 135.891Z" fill="white"/>
<path d="M280.165 257.696C279.97 257.696 279.78 257.638 279.618 257.53C279.457 257.422 279.331 257.269 279.256 257.089C279.182 256.909 279.162 256.711 279.2 256.521C279.238 256.33 279.332 256.155 279.469 256.017C279.516 255.972 279.567 255.93 279.62 255.892L279.791 255.801L279.974 255.748C280.102 255.722 280.234 255.722 280.361 255.748L280.545 255.801C280.602 255.827 280.657 255.858 280.709 255.892C280.763 255.929 280.814 255.97 280.86 256.017C281.044 256.201 281.148 256.452 281.149 256.712C281.15 256.842 281.125 256.97 281.075 257.09C281.026 257.209 280.952 257.317 280.86 257.408C280.676 257.592 280.425 257.696 280.165 257.696Z" fill="white"/>
<path d="M62.3199 257.29H35.2861V257.454H62.3199V257.29Z" fill="#E0E0E0"/>
<path d="M117.424 255.978H90.3115V256.142H117.424V255.978Z" fill="#E0E0E0"/>
<path d="M152.704 255.978H146.144V256.142H152.704V255.978Z" fill="#E0E0E0"/>
<path d="M87.1364 261.58H56.7964V261.744H87.1364V261.58Z" fill="#E0E0E0"/>
<path d="M192.077 257.205H177.907V257.369H192.077V257.205Z" fill="#E0E0E0"/>
<path d="M216.237 257.205H197.915V257.369H216.237V257.205Z" fill="#E0E0E0"/>
<path d="M304.601 259.979H263.64V260.143H304.601V259.979Z" fill="#E0E0E0"/>
<path d="M153.117 57.4988H122.895L124.548 38.665H154.764L153.117 57.4988Z" fill="#EBEBEB"/>
<path d="M153.727 36.1064L152.901 45.9399L152.074 57.761H123.013L124.666 36.1064H153.727Z" fill="#FAFAFA"/>
<path d="M150.952 38.665L152.598 57.4988H122.383L120.73 38.665H123.302L124.194 37.248H132.335L133.502 38.665H150.952Z" fill="#E0E0E0"/>
<path d="M199.955 61.7036H167.798V93.8607H199.955V61.7036Z" fill="#EBEBEB"/>
<path d="M200.775 61.7036H199.955V93.8607H200.775V61.7036Z" fill="#E0E0E0"/>
<path d="M196.977 64.6816H170.763V90.8954H196.977V64.6816Z" fill="#F5F5F5"/>
<path d="M171.012 64.6816H170.77V90.8954H171.012V64.6816Z" fill="#E0E0E0"/>
<path d="M184.12 81.5736C186.942 81.5736 189.23 78.6601 189.23 75.0661C189.23 71.4721 186.942 68.5586 184.12 68.5586C181.297 68.5586 179.009 71.4721 179.009 75.0661C179.009 78.6601 181.297 81.5736 184.12 81.5736Z" fill="#E0E0E0"/>
<path d="M181.449 84.8667H186.835V79.4809H181.449V84.8667Z" fill="#E0E0E0"/>
<path d="M193.828 90.8955H174.096V89.0587C174.096 87.3815 174.762 85.773 175.948 84.5871C177.134 83.4011 178.742 82.7349 180.42 82.7349H187.531C189.208 82.7349 190.816 83.4011 192.002 84.5871C193.188 85.773 193.854 87.3815 193.854 89.0587V90.8955H193.828Z" fill="#E0E0E0"/>
<path d="M173.604 79.9534C173.604 81.0227 175.572 81.9214 175.572 81.9214C175.572 81.9214 177.54 81.0489 177.54 79.9534C177.54 79.4417 176.831 79.1531 176.365 79.2974C176.187 79.3596 176.023 79.4566 175.882 79.5827C175.741 79.7088 175.627 79.8615 175.545 80.0321C175.294 79.6938 174.963 79.4232 174.581 79.2449C174.469 79.2057 174.349 79.1942 174.232 79.2113C174.115 79.2285 174.003 79.2738 173.907 79.3435C173.811 79.4131 173.733 79.5049 173.68 79.6111C173.628 79.7174 173.601 79.8348 173.604 79.9534Z" fill="#E0E0E0"/>
<path d="M191.067 75.1711C191.067 76.5815 193.618 77.723 193.618 77.723C193.618 77.723 196.17 76.5815 196.17 75.1711C196.17 74.5151 195.226 74.1281 194.629 74.2986C194.178 74.4785 193.816 74.8268 193.618 75.2695C193.286 74.8275 192.851 74.472 192.352 74.233C192.205 74.1807 192.046 74.1652 191.891 74.1879C191.736 74.2105 191.589 74.2706 191.462 74.363C191.335 74.4554 191.233 74.5773 191.164 74.7181C191.095 74.8589 191.062 75.0144 191.067 75.1711Z" fill="#E0E0E0"/>
<path d="M134.946 235.714C135.248 237.61 136.619 239.243 136.724 241.159C136.809 242.661 136.107 244.072 135.759 245.534C135.412 246.997 135.582 248.814 136.861 249.589C137.327 249.825 137.847 249.933 138.368 249.902C138.889 249.871 139.393 249.702 139.827 249.411C140.683 248.819 141.391 248.035 141.893 247.122C143.905 243.869 145.004 240.135 145.075 236.311C145.075 234.704 144.911 232.998 143.966 231.719C141.04 227.632 134.198 230.991 134.946 235.714Z" fill="#F5F5F5"/>
<path d="M132.512 230.696C132.794 231.004 133.162 231.221 133.568 231.319C133.814 231.399 134.076 231.415 134.329 231.366C134.583 231.316 134.82 231.203 135.018 231.037C135.169 230.843 135.276 230.619 135.332 230.381C135.389 230.142 135.394 229.894 135.346 229.653C135.306 229.049 135.099 228.467 134.749 227.974C134.573 227.73 134.34 227.534 134.069 227.402C133.799 227.27 133.501 227.208 133.201 227.219C132.901 227.244 132.619 227.371 132.402 227.578C132.184 227.786 132.045 228.062 132.007 228.361C131.934 229.172 132.11 229.987 132.512 230.696Z" fill="#F5F5F5"/>
<path d="M137.963 226.753C137.829 226.546 137.637 226.382 137.411 226.283C137.185 226.184 136.934 226.154 136.691 226.196C136.45 226.25 136.231 226.375 136.063 226.555C135.894 226.735 135.784 226.962 135.746 227.206C135.736 227.365 135.736 227.525 135.746 227.685C135.749 227.943 135.777 228.2 135.831 228.452C135.886 228.696 136.001 228.921 136.166 229.108C136.391 229.327 136.677 229.473 136.986 229.528C137.177 229.574 137.377 229.573 137.568 229.525C137.758 229.477 137.935 229.383 138.082 229.253C138.212 229.094 138.31 228.91 138.368 228.713C138.427 228.516 138.445 228.309 138.423 228.105C138.408 227.618 138.248 227.148 137.963 226.753Z" fill="#F5F5F5"/>
<path d="M141 226.589C140.893 226.391 140.718 226.238 140.507 226.159C140.296 226.079 140.064 226.078 139.852 226.156C139.646 226.242 139.464 226.377 139.322 226.55C139.18 226.723 139.083 226.928 139.039 227.147C139.039 227.291 139 227.435 138.993 227.58C138.989 227.818 139.016 228.056 139.072 228.288C139.119 228.517 139.239 228.724 139.413 228.879C139.599 229.034 139.828 229.13 140.069 229.154C140.226 229.173 140.386 229.158 140.536 229.109C140.687 229.061 140.825 228.98 140.941 228.872C141.196 228.582 141.336 228.209 141.335 227.822C141.364 227.386 141.246 226.952 141 226.589Z" fill="#F5F5F5"/>
<path d="M143.71 227.219C143.388 226.74 143.054 226.707 142.686 226.911C142.36 227.149 142.128 227.495 142.03 227.888C141.994 228.015 141.967 228.144 141.952 228.275C141.916 228.492 141.916 228.714 141.952 228.931C141.994 229.141 142.117 229.327 142.293 229.449C142.455 229.551 142.646 229.597 142.837 229.581C143.085 229.558 143.318 229.449 143.493 229.272C143.735 229.013 143.888 228.685 143.933 228.334C143.999 227.948 143.92 227.55 143.71 227.219Z" fill="#F5F5F5"/>
<path d="M144.241 229.875C144.205 230.031 144.205 230.192 144.241 230.348C144.255 230.427 144.287 230.503 144.336 230.567C144.386 230.631 144.45 230.682 144.523 230.715C144.657 230.746 144.797 230.736 144.926 230.687C145.054 230.638 145.165 230.552 145.245 230.44C145.439 230.241 145.581 229.998 145.658 229.731C145.696 229.598 145.708 229.458 145.691 229.321C145.674 229.183 145.629 229.051 145.56 228.931C144.976 227.98 144.32 229.403 144.241 229.875Z" fill="#F5F5F5"/>
<path d="M144.772 279.528C145.212 277.98 145.468 276.281 144.884 274.779C143.08 270.102 135.628 271.591 135.136 276.353L144.772 279.528Z" fill="#F5F5F5"/>
<path d="M134.099 270.882C134.294 271.253 134.596 271.557 134.965 271.755C135.182 271.895 135.43 271.977 135.687 271.994C135.944 272.012 136.202 271.963 136.435 271.853C136.626 271.702 136.784 271.513 136.897 271.297C137.01 271.081 137.076 270.843 137.091 270.6C137.206 270.008 137.156 269.395 136.946 268.829C136.838 268.547 136.661 268.295 136.432 268.097C136.203 267.9 135.929 267.761 135.634 267.694C135.339 267.642 135.035 267.692 134.773 267.836C134.51 267.981 134.305 268.211 134.191 268.488C133.92 269.258 133.887 270.093 134.099 270.882Z" fill="#F5F5F5"/>
<path d="M140.384 268.462C140.306 268.227 140.162 268.021 139.968 267.867C139.775 267.713 139.541 267.619 139.295 267.596C139.048 267.588 138.805 267.653 138.596 267.784C138.387 267.915 138.221 268.105 138.121 268.331C138.063 268.48 138.015 268.634 137.977 268.79C137.91 269.039 137.871 269.294 137.858 269.551C137.842 269.807 137.894 270.063 138.009 270.292C138.165 270.554 138.393 270.766 138.665 270.902C138.838 270.994 139.031 271.042 139.226 271.042C139.422 271.042 139.614 270.994 139.787 270.902C139.959 270.785 140.106 270.635 140.219 270.46C140.331 270.286 140.408 270.09 140.443 269.885C140.561 269.415 140.54 268.921 140.384 268.462Z" fill="#F5F5F5"/>
<path d="M143.336 269.085C143.282 268.869 143.154 268.678 142.974 268.548C142.794 268.417 142.574 268.354 142.352 268.37C142.13 268.401 141.919 268.487 141.737 268.618C141.556 268.75 141.409 268.923 141.309 269.124C141.25 269.255 141.197 269.388 141.152 269.524C141.078 269.747 141.034 269.979 141.02 270.213C141.007 270.444 141.067 270.673 141.191 270.869C141.336 271.074 141.543 271.228 141.781 271.308C141.929 271.368 142.088 271.394 142.246 271.385C142.405 271.376 142.56 271.332 142.7 271.256C143.022 271.045 143.255 270.723 143.356 270.351C143.489 269.938 143.482 269.493 143.336 269.085Z" fill="#F5F5F5"/>
<path d="M145.789 270.39C145.606 269.839 145.258 269.734 144.884 269.826C144.502 269.968 144.182 270.24 143.979 270.593C143.913 270.708 143.854 270.826 143.802 270.948C143.721 271.144 143.673 271.352 143.657 271.564C143.645 271.776 143.713 271.985 143.848 272.148C143.978 272.289 144.151 272.384 144.34 272.417C144.585 272.465 144.84 272.421 145.055 272.292C145.351 272.102 145.58 271.825 145.711 271.499C145.871 271.151 145.899 270.757 145.789 270.39Z" fill="#F5F5F5"/>
<path d="M145.632 273.093C145.552 273.231 145.504 273.386 145.494 273.546C145.488 273.626 145.5 273.706 145.531 273.78C145.562 273.854 145.61 273.92 145.671 273.972C145.793 274.036 145.93 274.063 146.067 274.049C146.203 274.035 146.333 273.981 146.439 273.893C146.676 273.75 146.876 273.552 147.023 273.316C147.093 273.197 147.14 273.065 147.159 272.927C147.178 272.79 147.17 272.65 147.134 272.516C146.793 271.446 145.842 272.667 145.632 273.093Z" fill="#F5F5F5"/>
<path d="M118.913 251.681C119.156 253.59 118.257 255.539 118.716 257.408C119.051 258.871 120.12 260.032 120.855 261.344C121.59 262.656 121.937 264.441 120.914 265.543C120.534 265.9 120.066 266.149 119.557 266.265C119.048 266.38 118.518 266.357 118.021 266.199C117.034 265.86 116.137 265.302 115.397 264.565C112.564 261.997 110.475 258.714 109.349 255.06C108.876 253.518 108.588 251.832 109.139 250.317C110.864 245.6 118.329 246.939 118.913 251.681Z" fill="#F5F5F5"/>
<path d="M119.838 246.197C119.654 246.57 119.361 246.879 118.998 247.083C118.785 247.229 118.538 247.318 118.281 247.341C118.023 247.364 117.764 247.32 117.529 247.214C117.329 247.07 117.163 246.885 117.042 246.671C116.92 246.457 116.847 246.219 116.827 245.974C116.7 245.383 116.737 244.768 116.932 244.196C117.038 243.91 117.213 243.655 117.442 243.454C117.671 243.252 117.947 243.111 118.244 243.042C118.538 242.982 118.844 243.025 119.11 243.164C119.376 243.302 119.587 243.528 119.707 243.803C119.89 244.413 120.12 245.6 119.838 246.197Z" fill="#F5F5F5"/>
<path d="M113.534 243.907C113.606 243.671 113.746 243.461 113.936 243.302C114.126 243.144 114.358 243.044 114.603 243.015C114.85 243.003 115.095 243.064 115.306 243.191C115.518 243.319 115.686 243.506 115.791 243.73C115.854 243.877 115.907 244.028 115.948 244.183C116.019 244.429 116.063 244.682 116.079 244.937C116.103 245.195 116.055 245.453 115.942 245.685C115.796 245.966 115.567 246.195 115.286 246.341C115.117 246.44 114.926 246.496 114.73 246.504C114.535 246.512 114.34 246.472 114.164 246.387C113.992 246.271 113.846 246.122 113.733 245.948C113.621 245.775 113.544 245.581 113.508 245.377C113.365 244.896 113.374 244.383 113.534 243.907Z" fill="#F5F5F5"/>
<path d="M110.569 244.59C110.617 244.369 110.743 244.174 110.924 244.039C111.105 243.904 111.328 243.839 111.553 243.855C111.775 243.882 111.986 243.963 112.17 244.089C112.354 244.216 112.505 244.386 112.609 244.583C112.672 244.713 112.727 244.847 112.773 244.983C112.853 245.205 112.904 245.437 112.924 245.672C112.937 245.902 112.88 246.131 112.76 246.328C112.62 246.536 112.418 246.695 112.183 246.781C112.037 246.844 111.879 246.874 111.72 246.868C111.561 246.862 111.405 246.821 111.264 246.748C110.943 246.541 110.71 246.224 110.608 245.856C110.456 245.45 110.442 245.005 110.569 244.59Z" fill="#F5F5F5"/>
<path d="M108.141 245.948C108.318 245.397 108.66 245.292 109.04 245.364C109.425 245.5 109.75 245.767 109.958 246.118C110.027 246.23 110.089 246.346 110.142 246.466C110.23 246.658 110.284 246.865 110.3 247.076C110.32 247.289 110.257 247.501 110.122 247.666C109.995 247.809 109.825 247.906 109.637 247.942C109.392 247.996 109.135 247.959 108.915 247.837C108.611 247.654 108.37 247.381 108.227 247.056C108.065 246.709 108.035 246.315 108.141 245.948Z" fill="#F5F5F5"/>
<path d="M108.364 248.624C108.446 248.763 108.497 248.917 108.515 249.077C108.523 249.157 108.511 249.238 108.481 249.314C108.452 249.389 108.405 249.456 108.345 249.51C108.223 249.575 108.085 249.603 107.948 249.591C107.811 249.58 107.68 249.529 107.571 249.444C107.33 249.308 107.128 249.114 106.98 248.88C106.906 248.762 106.856 248.631 106.835 248.493C106.813 248.355 106.821 248.215 106.856 248.08C107.164 247.024 108.141 248.224 108.364 248.624Z" fill="#F5F5F5"/>
<path d="M102.815 94.1954C101.305 94.4077 99.7663 94.1675 98.3932 93.5052C97.02 92.8429 95.8741 91.7883 95.1003 90.4747C94.3265 89.1611 93.9597 87.6476 94.0461 86.1255C94.1325 84.6034 94.6684 83.1411 95.5859 81.9236C96.5034 80.7061 97.7613 79.788 99.2007 79.2854C100.64 78.7828 102.196 78.7183 103.672 79.1001C105.148 79.4819 106.478 80.2928 107.493 81.4302C108.508 82.5677 109.163 83.9806 109.375 85.4903C109.656 87.514 109.123 89.5665 107.893 91.1981C106.664 92.8298 104.837 93.9076 102.815 94.1954ZM101.253 82.9778C100.545 83.0755 99.8816 83.381 99.347 83.8558C98.8123 84.3307 98.4305 84.9534 98.2498 85.6452C98.0691 86.3371 98.0977 87.067 98.332 87.7426C98.5662 88.4182 98.9956 89.0092 99.5657 89.4407C100.136 89.8722 100.821 90.1249 101.535 90.1669C102.249 90.2088 102.959 90.0381 103.576 89.6763C104.193 89.3145 104.688 88.7779 105 88.1343C105.312 87.4908 105.426 86.7693 105.327 86.061C105.194 85.113 104.69 84.2563 103.927 83.6785C103.163 83.1007 102.202 82.8488 101.253 82.9778Z" fill="#E0E0E0"/>
<path d="M99.9255 63.5685L97.0278 63.9731L99.6309 82.6129L102.529 82.2082L99.9255 63.5685Z" fill="#E0E0E0"/>
<path d="M102.376 60.9745L96.9404 61.7432L97.35 64.6397L102.786 63.871L102.376 60.9745Z" fill="#E0E0E0"/>
<path d="M102.823 64.9148L97.71 65.6279L98.1141 68.5256L103.227 67.8125L102.823 64.9148Z" fill="#E0E0E0"/>
<path d="M103.568 70.168L99.105 70.7905L99.5091 73.6882L103.973 73.0657L103.568 70.168Z" fill="#E0E0E0"/>
<path d="M164 290.339C234.246 290.339 291.192 287.014 291.192 282.913C291.192 278.812 234.246 275.487 164 275.487C93.7538 275.487 36.8081 278.812 36.8081 282.913C36.8081 287.014 93.7538 290.339 164 290.339Z" fill="#F5F5F5"/>
<path d="M96.7404 159.589C102.788 153.271 102.103 142.8 95.2093 136.201C88.3158 129.602 77.8248 129.374 71.7769 135.692C65.729 142.009 66.4144 152.48 73.3079 159.08C80.2014 165.679 90.6925 165.907 96.7404 159.589Z" fill="#0B4266"/>
<g opacity="0.8">
<path d="M96.7404 159.589C102.788 153.271 102.103 142.8 95.2093 136.201C88.3158 129.602 77.8248 129.374 71.7769 135.692C65.729 142.009 66.4144 152.48 73.3079 159.08C80.2014 165.679 90.6925 165.907 96.7404 159.589Z" fill="white"/>
</g>
<path d="M76.5486 137.262C76.4109 137.262 76.2767 137.218 76.165 137.138C76.0533 137.057 75.9698 136.944 75.9262 136.813C75.8827 136.682 75.8814 136.541 75.9224 136.41C75.9635 136.279 76.0448 136.163 76.155 136.081C78.3639 134.495 81.0264 133.667 83.7449 133.719C83.9189 133.719 84.0857 133.788 84.2088 133.911C84.3318 134.034 84.4009 134.201 84.4009 134.375C84.4009 134.549 84.3318 134.716 84.2088 134.839C84.0857 134.962 83.9189 135.031 83.7449 135.031C81.3101 134.977 78.9234 135.714 76.9422 137.13C76.8286 137.215 76.6905 137.262 76.5486 137.262Z" fill="#0B4266"/>
<path d="M79.6515 159.828C79.5438 159.827 79.4379 159.8 79.3432 159.749C77.3328 158.674 75.5883 157.163 74.2376 155.326C72.8869 153.49 71.964 151.374 71.5368 149.135C71.12 147.198 71.1392 145.192 71.593 143.264C72.0468 141.335 72.9239 139.531 74.1608 137.983C74.2721 137.849 74.4321 137.765 74.6056 137.749C74.7791 137.733 74.9518 137.786 75.0857 137.898C75.2197 138.009 75.3039 138.169 75.3199 138.343C75.3359 138.516 75.2824 138.689 75.171 138.823C74.0537 140.224 73.2626 141.856 72.8553 143.602C72.4479 145.347 72.4345 147.161 72.816 148.912C73.209 150.959 74.0536 152.893 75.2882 154.572C76.5229 156.252 78.1166 157.635 79.9533 158.621C80.0815 158.69 80.1831 158.8 80.2419 158.933C80.3007 159.067 80.3134 159.216 80.2781 159.357C80.2428 159.499 80.1613 159.624 80.0467 159.714C79.932 159.804 79.7907 159.853 79.6449 159.854L79.6515 159.828Z" fill="#0B4266"/>
<path d="M86.2178 161.54C84.7495 161.534 83.291 161.299 81.8948 160.845C81.8125 160.818 81.7363 160.775 81.6705 160.719C81.6047 160.663 81.5506 160.594 81.5113 160.517C81.472 160.44 81.4483 160.356 81.4415 160.27C81.4347 160.184 81.4449 160.097 81.4716 160.015C81.4983 159.933 81.541 159.856 81.5971 159.791C81.6533 159.725 81.7219 159.671 81.7989 159.631C81.876 159.592 81.96 159.568 82.0462 159.562C82.1325 159.555 82.2192 159.565 82.3015 159.592C86.3359 160.904 90.3637 160.169 93.3485 157.624C94.8627 156.287 96.0071 154.583 96.6712 152.676C97.3354 150.768 97.4969 148.722 97.1402 146.734C97.1124 146.56 97.1548 146.382 97.2581 146.24C97.3614 146.097 97.5173 146.001 97.6912 145.973C97.8652 145.945 98.0431 145.988 98.1858 146.091C98.3285 146.194 98.4244 146.35 98.4522 146.524C98.8499 148.733 98.6692 151.008 97.9278 153.126C97.1864 155.245 95.9094 157.135 94.221 158.614C91.9964 160.528 89.1521 161.568 86.2178 161.54Z" fill="#0B4266"/>
<path d="M97.2521 145.055C97.1129 145.054 96.9776 145.009 96.8655 144.927C96.7535 144.844 96.6706 144.728 96.6289 144.595C96.0255 142.733 95.0375 141.017 93.7289 139.561C92.4203 138.104 90.8202 136.938 89.0324 136.14C88.8724 136.07 88.7465 135.94 88.6825 135.777C88.6185 135.615 88.6217 135.434 88.6913 135.274C88.7609 135.114 88.8912 134.988 89.0536 134.924C89.216 134.86 89.3972 134.863 89.5572 134.933C91.5151 135.808 93.2673 137.085 94.7002 138.68C96.1331 140.276 97.2148 142.155 97.8753 144.195C97.9291 144.361 97.9151 144.54 97.8364 144.695C97.7577 144.85 97.6207 144.968 97.4555 145.022C97.3894 145.042 97.321 145.053 97.2521 145.055Z" fill="#0B4266"/>
<path d="M86.9131 135.398C86.8631 135.405 86.8123 135.405 86.7623 135.398C85.775 135.169 84.7648 135.052 83.7512 135.051C83.5772 135.051 83.4104 134.982 83.2874 134.859C83.1643 134.736 83.0952 134.569 83.0952 134.395C83.0952 134.221 83.1643 134.054 83.2874 133.931C83.4104 133.808 83.5772 133.739 83.7512 133.739C84.8557 133.742 85.9562 133.872 87.0312 134.126C87.2052 134.146 87.3641 134.234 87.473 134.371C87.5819 134.508 87.6318 134.683 87.6118 134.857C87.5918 135.031 87.5035 135.19 87.3663 135.299C87.2291 135.408 87.0543 135.458 86.8803 135.438L86.9131 135.398Z" fill="#0B4266"/>
<path d="M75.3415 151.07C75.2075 151.071 75.0766 151.03 74.9663 150.954C74.8561 150.877 74.7718 150.769 74.7249 150.644C74.11 149.056 73.8937 147.342 74.095 145.652C74.2963 143.962 74.909 142.347 75.8795 140.948C76.7968 139.623 78.0255 138.544 79.4576 137.805C80.8896 137.066 82.4813 136.69 84.0926 136.71C84.2666 136.71 84.4334 136.779 84.5565 136.902C84.6795 137.025 84.7486 137.192 84.7486 137.366C84.7486 137.54 84.6795 137.707 84.5565 137.83C84.4334 137.953 84.2666 138.022 84.0926 138.022C82.6926 138.006 81.3097 138.332 80.0646 138.972C78.8195 139.612 77.7498 140.548 76.9488 141.696C76.0977 142.927 75.5623 144.349 75.3896 145.836C75.2169 147.323 75.4121 148.83 75.9582 150.224C76.0176 150.387 76.0103 150.566 75.9377 150.723C75.8652 150.881 75.7334 151.003 75.5711 151.064C75.4955 151.078 75.4179 151.081 75.3415 151.07Z" fill="#0B4266"/>
<path d="M85.7458 158.562C83.7795 158.496 81.8581 157.957 80.145 156.989C78.4319 156.022 76.9776 154.655 75.9058 153.006C75.8261 152.861 75.8042 152.691 75.8443 152.531C75.8844 152.37 75.9837 152.231 76.1222 152.14C76.2606 152.05 76.4282 152.015 76.5912 152.043C76.7542 152.071 76.9007 152.159 77.0013 152.291C77.9539 153.758 79.2458 154.975 80.7678 155.838C82.2898 156.701 83.9972 157.186 85.7458 157.25C85.9197 157.25 86.0866 157.319 86.2096 157.442C86.3327 157.565 86.4018 157.732 86.4018 157.906C86.4018 158.08 86.3327 158.247 86.2096 158.37C86.0866 158.493 85.9197 158.562 85.7458 158.562Z" fill="#0B4266"/>
<path d="M88.1992 158.28C88.0494 158.284 87.9026 158.237 87.7832 158.146C87.6638 158.056 87.5791 157.927 87.5432 157.781C87.5016 157.612 87.5287 157.434 87.6185 157.285C87.7082 157.136 87.8534 157.029 88.0221 156.987C93.3423 155.675 94.7199 151.011 94.2804 147.429C93.7096 142.759 90.0229 138.029 84.073 138.022C83.899 138.022 83.7322 137.953 83.6091 137.83C83.4861 137.707 83.417 137.54 83.417 137.366C83.417 137.192 83.4861 137.026 83.6091 136.903C83.7322 136.78 83.899 136.71 84.073 136.71C90.7839 136.71 94.9429 142.024 95.5858 147.272C96.2418 152.684 93.4013 157.001 88.337 158.26C88.2919 158.271 88.2457 158.278 88.1992 158.28Z" fill="#0B4266"/>
<path d="M81.4094 141.643C81.285 141.642 81.1635 141.606 81.059 141.539C80.9545 141.471 80.8712 141.376 80.819 141.263C80.7451 141.105 80.7367 140.925 80.7958 140.761C80.8548 140.598 80.9765 140.464 81.1339 140.39C82.1396 139.946 83.229 139.722 84.3286 139.734C84.5026 139.734 84.6694 139.803 84.7925 139.927C84.9155 140.05 84.9846 140.216 84.9846 140.39C84.9846 140.564 84.9155 140.731 84.7925 140.854C84.6694 140.977 84.5026 141.046 84.3286 141.046C83.4232 141.047 82.5285 141.242 81.7046 141.617C81.6095 141.648 81.5085 141.657 81.4094 141.643Z" fill="#0B4266"/>
<path d="M85.6273 155.505C83.9659 155.478 82.3469 154.976 80.9622 154.057C79.5775 153.139 78.4851 151.843 77.8144 150.323C76.4565 147.364 76.8566 144.274 78.8837 142.044C79.0013 141.916 79.1647 141.84 79.338 141.833C79.5114 141.826 79.6806 141.887 79.8086 142.004C79.9362 142.122 80.0119 142.285 80.0193 142.459C80.0267 142.632 79.9651 142.801 79.848 142.929C79.0329 143.851 78.5163 144.999 78.3664 146.22C78.2165 147.442 78.4403 148.68 79.0083 149.771C79.5881 151.097 80.5444 152.222 81.7585 153.008C82.9726 153.794 84.391 154.206 85.8373 154.193C86.9314 154.185 87.9998 153.861 88.9136 153.259C89.8274 152.657 90.5474 151.803 90.9869 150.801C91.4809 149.619 91.6298 148.321 91.4162 147.058C91.2025 145.795 90.6351 144.618 89.7798 143.664C89.7238 143.599 89.6813 143.523 89.6546 143.441C89.6279 143.359 89.6176 143.273 89.6243 143.187C89.631 143.101 89.6546 143.017 89.6936 142.94C89.7327 142.863 89.7865 142.795 89.852 142.739C89.9174 142.683 89.9933 142.641 90.0752 142.614C90.1571 142.587 90.2435 142.577 90.3294 142.584C90.4153 142.59 90.499 142.614 90.5758 142.653C90.6526 142.692 90.7209 142.746 90.7769 142.811C91.7952 143.953 92.4684 145.361 92.718 146.871C92.9677 148.381 92.7837 149.93 92.1873 151.339C91.6491 152.569 90.7671 153.616 89.6476 154.357C88.5281 155.097 87.2186 155.498 85.8766 155.511L85.6273 155.505Z" fill="#0B4266"/>
<path d="M88.3895 142.221C88.2657 142.221 88.1445 142.185 88.0418 142.116C86.9341 141.403 85.6461 141.021 84.3289 141.014C84.1549 141.014 83.988 140.945 83.865 140.822C83.742 140.698 83.6729 140.532 83.6729 140.358C83.6729 140.184 83.742 140.017 83.865 139.894C83.988 139.771 84.1549 139.702 84.3289 139.702C85.8957 139.708 87.428 140.163 88.7437 141.014C88.8626 141.09 88.9534 141.204 89.0027 141.336C89.052 141.469 89.0571 141.614 89.0172 141.749C88.9774 141.885 88.8948 142.004 88.7816 142.089C88.6685 142.174 88.531 142.22 88.3895 142.221Z" fill="#0B4266"/>
<path d="M85.2801 152.546C84.5136 152.541 83.7575 152.368 83.065 152.039C82.3726 151.711 81.7605 151.234 81.2719 150.644C80.6414 149.922 80.2319 149.034 80.0923 148.086C79.9527 147.138 80.0889 146.17 80.4847 145.297C80.838 144.505 81.4161 143.834 82.1473 143.368C82.8785 142.901 83.7306 142.66 84.5978 142.673C84.7718 142.673 84.9387 142.743 85.0617 142.866C85.1847 142.989 85.2538 143.155 85.2538 143.329C85.2538 143.503 85.1847 143.67 85.0617 143.793C84.9387 143.916 84.7718 143.985 84.5978 143.985C83.9844 143.974 83.3811 144.143 82.8624 144.47C82.3436 144.798 81.9321 145.27 81.6786 145.829C81.3902 146.473 81.2931 147.187 81.3989 147.884C81.5048 148.582 81.8091 149.235 82.2756 149.765C82.74 150.334 83.3565 150.759 84.0533 150.992C84.7501 151.224 85.4986 151.253 86.2116 151.077C86.7916 150.946 87.322 150.652 87.7395 150.228C88.157 149.805 88.4441 149.271 88.5666 148.689C88.6043 148.519 88.7076 148.372 88.8539 148.278C89.0002 148.185 89.1776 148.153 89.3473 148.19C89.4318 148.208 89.5119 148.243 89.5831 148.292C89.6543 148.341 89.7151 148.403 89.762 148.476C89.8089 148.548 89.8411 148.629 89.8566 148.714C89.8721 148.799 89.8707 148.887 89.8524 148.971C89.6787 149.792 89.2739 150.546 88.6858 151.145C88.0977 151.743 87.3508 152.161 86.533 152.349C86.1247 152.465 85.7041 152.531 85.2801 152.546Z" fill="#0B4266"/>
<path d="M89.0978 147.351C88.9531 147.358 88.8103 147.316 88.6916 147.233C88.5729 147.15 88.4851 147.03 88.4418 146.892C88.18 146.07 87.6683 145.35 86.9781 144.833C86.2878 144.315 85.4534 144.026 84.5911 144.005C84.4171 144.005 84.2502 143.936 84.1272 143.813C84.0042 143.69 83.9351 143.523 83.9351 143.349C83.9351 143.175 84.0042 143.009 84.1272 142.885C84.2502 142.762 84.4171 142.693 84.5911 142.693C85.7316 142.719 86.8359 143.099 87.7506 143.781C88.6652 144.463 89.3447 145.412 89.6947 146.498C89.7212 146.58 89.7312 146.667 89.7241 146.753C89.717 146.839 89.693 146.923 89.6533 147C89.6137 147.077 89.5593 147.145 89.4932 147.201C89.4272 147.257 89.3507 147.299 89.2683 147.325C89.2129 147.341 89.1555 147.35 89.0978 147.351Z" fill="#0B4266"/>
<path d="M85.4568 149.817C85.2828 149.817 85.1159 149.748 84.9929 149.625C84.8699 149.502 84.8008 149.335 84.8008 149.161C84.8008 148.987 84.8699 148.82 84.9929 148.697C85.1159 148.574 85.2828 148.505 85.4568 148.505C85.5463 148.505 85.635 148.487 85.7173 148.452C85.7995 148.416 85.8737 148.365 85.9351 148.299C85.9966 148.234 86.0441 148.157 86.0746 148.073C86.1052 147.989 86.1182 147.899 86.1128 147.81C86.1163 147.682 86.0943 147.555 86.0483 147.436C86.0022 147.317 85.9329 147.208 85.8444 147.116C85.7559 147.023 85.6499 146.95 85.5327 146.899C85.4155 146.848 85.2893 146.821 85.1616 146.819C85.0653 146.822 84.9706 146.843 84.8827 146.883C84.7949 146.922 84.7158 146.979 84.6499 147.049C84.5827 147.128 84.5318 147.22 84.5003 147.319C84.4688 147.418 84.4572 147.523 84.4662 147.626C84.4714 147.712 84.4595 147.799 84.4313 147.88C84.4032 147.962 84.3592 148.037 84.3019 148.102C84.2447 148.166 84.1752 148.219 84.0976 148.257C84.02 148.294 83.9357 148.316 83.8496 148.322C83.7634 148.327 83.6771 148.315 83.5955 148.287C83.514 148.259 83.4388 148.215 83.3742 148.157C83.3096 148.1 83.257 148.031 83.2192 147.953C83.1815 147.875 83.1594 147.791 83.1542 147.705C83.1309 147.43 83.1641 147.153 83.2517 146.891C83.3394 146.629 83.4797 146.387 83.664 146.181C83.8483 145.976 84.0727 145.81 84.3235 145.694C84.5742 145.578 84.846 145.514 85.1222 145.507C85.4225 145.508 85.7197 145.569 85.9964 145.685C86.2732 145.802 86.5241 145.972 86.7346 146.186C86.9451 146.4 87.1111 146.654 87.2228 146.933C87.3345 147.211 87.3898 147.51 87.3854 147.81C87.3907 148.072 87.3436 148.332 87.2471 148.575C87.1505 148.818 87.0064 149.04 86.8231 149.227C86.6398 149.414 86.4211 149.562 86.1797 149.664C85.9384 149.765 85.6792 149.817 85.4174 149.817H85.4568Z" fill="#0B4266"/>
<path d="M102.336 147.633C103.136 156.771 96.3727 164.177 87.2477 164.177H86.5392C95.2378 163.731 101.555 156.502 100.781 147.653C100.334 143.321 98.3695 139.287 95.2349 136.264C92.1004 133.241 87.9978 131.424 83.6528 131.134C83.8824 131.134 84.1186 131.134 84.3548 131.134C93.506 131.095 101.562 138.501 102.336 147.633Z" fill="#0B4266"/>
<g opacity="0.4">
<path d="M102.336 147.633C103.136 156.771 96.3727 164.177 87.2477 164.177H86.5392C95.2378 163.731 101.555 156.502 100.781 147.653C100.334 143.321 98.3695 139.287 95.2349 136.264C92.1004 133.241 87.9978 131.424 83.6528 131.134C83.8824 131.134 84.1186 131.134 84.3548 131.134C93.506 131.095 101.562 138.501 102.336 147.633Z" fill="white"/>
</g>
<path d="M115.731 67.0038C115.748 67.1997 115.774 67.3945 115.81 67.5877C116.058 68.8516 116.706 70.002 117.66 70.8677C118.741 71.8794 120.162 72.4483 121.642 72.4617H177.067C177.714 72.4748 178.358 72.3591 178.959 72.1213C179.561 71.8835 180.11 71.5284 180.573 71.0767C181.036 70.625 181.405 70.0856 181.658 69.49C181.911 68.8944 182.043 68.2544 182.047 67.6073C182.056 67.4128 182.056 67.218 182.047 67.0235C181.892 65.5547 181.207 64.1927 180.12 63.1928C179.033 62.1928 177.619 61.6236 176.143 61.5918H120.704C120.009 61.5778 119.319 61.7117 118.68 61.9848C118.041 62.2579 117.467 62.6639 116.996 63.1757C116.526 63.6876 116.17 64.2936 115.952 64.9537C115.734 65.6137 115.659 66.3125 115.731 67.0038Z" fill="#0B4266"/>
<path opacity="0.8" d="M115.731 67.0038C115.748 67.1997 115.774 67.3945 115.81 67.5877C116.058 68.8516 116.706 70.002 117.66 70.8677C118.741 71.8794 120.162 72.4483 121.642 72.4617H177.067C177.714 72.4748 178.358 72.3591 178.959 72.1213C179.561 71.8835 180.11 71.5284 180.573 71.0767C181.036 70.625 181.405 70.0856 181.658 69.49C181.911 68.8944 182.043 68.2544 182.047 67.6073C182.056 67.4128 182.056 67.218 182.047 67.0235C181.892 65.5547 181.207 64.1927 180.12 63.1928C179.033 62.1928 177.619 61.6236 176.143 61.5918H120.704C120.009 61.5778 119.319 61.7117 118.68 61.9848C118.041 62.2579 117.467 62.6639 116.996 63.1757C116.526 63.6876 116.17 64.2936 115.952 64.9537C115.734 65.6137 115.659 66.3125 115.731 67.0038Z" fill="white"/>
<path d="M182.047 67.5676C182.047 67.7433 182.034 67.9188 182.007 68.0924C181.812 66.6569 181.109 65.3387 180.026 64.3762C178.943 63.4137 177.552 62.8703 176.103 62.8444L117.175 62.9756C117.642 62.5212 118.194 62.1633 118.8 61.9225C119.405 61.6816 120.052 61.5624 120.704 61.5718H176.13C177.606 61.6036 179.02 62.1728 180.107 63.1728C181.194 64.1727 181.879 65.5347 182.034 67.0035C182.047 67.1912 182.051 67.3795 182.047 67.5676Z" fill="#0B4266"/>
<path opacity="0.5" d="M182.047 67.5676C182.047 67.7433 182.034 67.9188 182.007 68.0924C181.812 66.6569 181.109 65.3387 180.026 64.3762C178.943 63.4137 177.552 62.8703 176.103 62.8444L117.175 62.9756C117.642 62.5212 118.194 62.1633 118.8 61.9225C119.405 61.6816 120.052 61.5624 120.704 61.5718H176.13C177.606 61.6036 179.02 62.1728 180.107 63.1728C181.194 64.1727 181.879 65.5347 182.034 67.0035C182.047 67.1912 182.051 67.3795 182.047 67.5676Z" fill="white"/>
<path d="M172.528 64.1959L172.764 66.8199L175.231 65.9015L175.815 67.2135L173.296 68.0532L175.106 70.277L173.971 71.1101L172.207 68.801L170.895 71.1101L169.655 70.277L171.052 68.0532L168.428 67.2135L168.782 65.9015L171.439 66.7871L171.203 64.1631L172.528 64.1959Z" fill="#0B4266"/>
<path d="M157.342 64.1962L157.578 66.8202L160.044 65.9018L160.635 67.2138L158.096 68.0732L159.907 70.297L158.778 71.1301L157.014 68.821L155.702 71.1301L154.455 70.297L155.859 68.0732L153.235 67.2335L153.589 65.9215L156.246 66.8071L156.017 64.1831L157.342 64.1962Z" fill="#0B4266"/>
<path d="M142.188 64.1962L142.417 66.8202L144.884 65.9018L145.474 67.2138L142.949 68.0535L144.759 70.2773L143.664 71.1301L141.899 68.821L140.587 71.1301L139.347 70.297L140.745 68.0732L138.121 67.2335L138.481 65.9215L141.105 66.8071L140.876 64.1831L142.188 64.1962Z" fill="#0B4266"/>
<path d="M127.028 64.1959L127.257 66.8199L129.73 65.9015L130.314 67.2135L127.789 68.0532L129.606 70.277L128.471 71.1101L126.706 68.801L125.394 71.1101L124.154 70.277L125.552 68.0532L122.928 67.2135L123.282 65.9015L125.906 66.7871L125.676 64.1631L127.028 64.1959Z" fill="#0B4266"/>
<path d="M163.77 59.0005H161.186V59.6565H163.77V59.0005Z" fill="#0B4266"/>
<path d="M174.876 59.0005H166.447V59.6565H174.876V59.0005Z" fill="#0B4266"/>
<path opacity="0.8" d="M260.95 83.4695L258.267 114.144C258.164 115.123 257.707 116.031 256.983 116.697C256.258 117.364 255.315 117.744 254.331 117.765H233.031C232.57 117.768 232.114 117.673 231.692 117.487C231.27 117.302 230.892 117.029 230.582 116.687C230.273 116.346 230.039 115.942 229.895 115.504C229.752 115.066 229.703 114.603 229.751 114.144L232.434 83.463C232.533 82.4823 232.989 81.5722 233.714 80.9048C234.44 80.2375 235.384 79.8593 236.37 79.8418H257.67C258.132 79.8392 258.589 79.9341 259.011 80.1203C259.434 80.3064 259.812 80.5796 260.122 80.922C260.431 81.2644 260.665 81.6683 260.808 82.1073C260.951 82.5463 260.999 83.0105 260.95 83.4695Z" fill="#0B4266"/>
<path opacity="0.8" d="M260.95 83.4695L258.267 114.144C258.164 115.123 257.707 116.031 256.983 116.697C256.258 117.364 255.315 117.744 254.331 117.765H233.031C232.57 117.768 232.114 117.673 231.692 117.487C231.27 117.302 230.892 117.029 230.582 116.687C230.273 116.346 230.039 115.942 229.895 115.504C229.752 115.066 229.703 114.603 229.751 114.144L232.434 83.463C232.533 82.4823 232.989 81.5722 233.714 80.9048C234.44 80.2375 235.384 79.8593 236.37 79.8418H257.67C258.132 79.8392 258.589 79.9341 259.011 80.1203C259.434 80.3064 259.812 80.5796 260.122 80.922C260.431 81.2644 260.665 81.6683 260.808 82.1073C260.951 82.5463 260.999 83.0105 260.95 83.4695Z" fill="white"/>
<path d="M234.376 88.4159H234.317C234.144 88.4008 233.984 88.3178 233.872 88.185C233.76 88.0522 233.705 87.8804 233.72 87.7074L233.969 84.8997C233.984 84.7361 234.059 84.5841 234.181 84.4736C234.302 84.363 234.461 84.3021 234.625 84.3027H237.59C237.764 84.3027 237.931 84.3719 238.054 84.4949C238.177 84.6179 238.246 84.7848 238.246 84.9587C238.246 85.1327 238.177 85.2996 238.054 85.4226C237.931 85.5456 237.764 85.6147 237.59 85.6147H235.229L235.032 87.8189C235.017 87.9825 234.941 88.1345 234.82 88.245C234.699 88.3556 234.54 88.4165 234.376 88.4159Z" fill="#0B4266"/>
<path d="M258.228 88.4159H258.169C257.996 88.4008 257.836 88.3178 257.724 88.185C257.612 88.0522 257.557 87.8804 257.572 87.7074L257.755 85.6147H255.512C255.338 85.6147 255.171 85.5456 255.048 85.4226C254.925 85.2996 254.856 85.1327 254.856 84.9587C254.856 84.7848 254.925 84.6179 255.048 84.4949C255.171 84.3719 255.338 84.3027 255.512 84.3027H258.464C258.555 84.3024 258.646 84.3211 258.729 84.3577C258.813 84.3943 258.888 84.4479 258.95 84.5153C259.012 84.5826 259.059 84.662 259.088 84.7486C259.117 84.8351 259.128 84.9268 259.12 85.0178L258.871 87.8189C258.856 87.9802 258.782 88.1304 258.664 88.2407C258.545 88.3509 258.39 88.4133 258.228 88.4159Z" fill="#0B4266"/>
<path d="M235.504 109.585H232.539C232.449 109.585 232.36 109.566 232.278 109.53C232.195 109.494 232.121 109.441 232.06 109.375C231.999 109.308 231.952 109.23 231.923 109.144C231.893 109.058 231.882 108.967 231.89 108.877L232.132 106.069C232.147 105.895 232.23 105.734 232.364 105.621C232.497 105.509 232.67 105.454 232.844 105.469C233.018 105.483 233.179 105.567 233.292 105.7C233.404 105.834 233.459 106.006 233.444 106.18L233.261 108.273H235.504C235.678 108.273 235.845 108.342 235.968 108.465C236.091 108.588 236.16 108.755 236.16 108.929C236.16 109.103 236.091 109.27 235.968 109.393C235.845 109.516 235.678 109.585 235.504 109.585Z" fill="#0B4266"/>
<path d="M256.371 109.585H253.413C253.239 109.585 253.072 109.516 252.949 109.393C252.826 109.27 252.757 109.103 252.757 108.929C252.757 108.755 252.826 108.588 252.949 108.465C253.072 108.342 253.239 108.273 253.413 108.273H255.774L255.965 106.069C255.98 105.895 256.063 105.735 256.196 105.624C256.328 105.512 256.5 105.457 256.673 105.472C256.846 105.487 257.006 105.57 257.118 105.702C257.23 105.835 257.285 106.007 257.27 106.18L257.027 108.988C257.013 109.151 256.937 109.303 256.816 109.414C256.694 109.524 256.536 109.585 256.371 109.585Z" fill="#0B4266"/>
<path d="M254.114 99.008C255.595 93.2651 253.052 87.6444 248.436 86.4538C243.819 85.2633 238.876 88.9537 237.395 94.6967C235.914 100.44 238.456 106.06 243.073 107.251C247.689 108.441 252.633 104.751 254.114 99.008Z" fill="white"/>
<path d="M248.329 113.18H239.834L240.575 104.685H249.07L248.329 113.18Z" fill="white"/>
<path d="M258.267 114.144C258.164 115.123 257.707 116.031 256.983 116.697C256.258 117.364 255.315 117.744 254.331 117.765H233.031C232.57 117.768 232.114 117.673 231.692 117.487C231.27 117.302 230.892 117.029 230.582 116.687C230.273 116.346 230.039 115.943 229.895 115.504C229.752 115.066 229.703 114.603 229.751 114.144C229.751 114.144 239.538 111.048 240.745 111.048H248.309L258.267 114.144Z" fill="white"/>
<path d="M262.188 92.4341L261.195 104.483L261.849 104.537L262.841 92.488L262.188 92.4341Z" fill="#0B4266"/>
<path d="M262.878 86.9204L262.683 89.2871L263.336 89.341L263.531 86.9743L262.878 86.9204Z" fill="#0B4266"/>
<path d="M240.017 160.11H237.433V160.766H240.017V160.11Z" fill="#0B4266"/>
<path d="M251.123 160.11H242.694V160.766H251.123V160.11Z" fill="#0B4266"/>
<path d="M266.552 148.912L264.919 167.608C264.834 168.434 264.45 169.201 263.838 169.763C263.226 170.325 262.43 170.644 261.6 170.658C261.209 170.665 260.821 170.589 260.462 170.435C260.103 170.28 259.781 170.051 259.517 169.763C259.254 169.474 259.054 169.133 258.933 168.761C258.811 168.39 258.77 167.997 258.812 167.608L260.432 148.912C260.583 147.518 260.435 146.107 260 144.774C259.564 143.441 258.85 142.216 257.904 141.18C256.959 140.144 255.804 139.321 254.516 138.765C253.228 138.209 251.837 137.934 250.435 137.957H243.77C240.789 138.013 237.931 139.159 235.737 141.177C233.542 143.195 232.162 145.946 231.857 148.912L231.201 156.548H225.1L225.756 148.912C226.576 139.505 234.9 131.856 244.301 131.856H250.992C253.175 131.82 255.341 132.249 257.346 133.114C259.351 133.979 261.149 135.261 262.62 136.874C264.092 138.487 265.204 140.394 265.881 142.47C266.559 144.545 266.788 146.741 266.552 148.912Z" fill="#0B4266"/>
<g opacity="0.5">
<path d="M266.552 148.912L264.919 167.608C264.834 168.434 264.45 169.201 263.838 169.763C263.226 170.325 262.43 170.644 261.6 170.658C261.209 170.665 260.821 170.589 260.462 170.435C260.103 170.28 259.781 170.051 259.517 169.763C259.254 169.474 259.054 169.133 258.933 168.761C258.811 168.39 258.77 167.997 258.812 167.608L260.432 148.912C260.583 147.518 260.435 146.107 260 144.774C259.564 143.441 258.85 142.216 257.904 141.18C256.959 140.144 255.804 139.321 254.516 138.765C253.228 138.209 251.837 137.934 250.435 137.957H243.77C240.789 138.013 237.931 139.159 235.737 141.177C233.542 143.195 232.162 145.946 231.857 148.912L231.201 156.548H225.1L225.756 148.912C226.576 139.505 234.9 131.856 244.301 131.856H250.992C253.175 131.82 255.341 132.249 257.346 133.114C259.351 133.979 261.149 135.261 262.62 136.874C264.092 138.487 265.204 140.394 265.881 142.47C266.559 144.545 266.788 146.741 266.552 148.912Z" fill="white"/>
</g>
<path d="M266.992 166.926L263.81 203.36C263.695 204.49 263.169 205.538 262.332 206.306C261.496 207.073 260.406 207.507 259.271 207.526H222.837C222.303 207.535 221.773 207.431 221.283 207.22C220.793 207.009 220.353 206.696 219.993 206.302C219.633 205.908 219.361 205.442 219.196 204.935C219.03 204.427 218.974 203.891 219.032 203.36L222.22 166.926C222.293 166.199 222.537 165.501 222.932 164.886C223.326 164.272 223.86 163.759 224.49 163.39C225.174 162.971 225.958 162.745 226.76 162.734H263.187C263.931 162.73 264.662 162.937 265.293 163.331C265.882 163.713 266.354 164.252 266.654 164.887C266.954 165.522 267.071 166.228 266.992 166.926Z" fill="#0B4266"/>
<path d="M229.108 182.841L238.574 197.41L269.793 166.191C269.842 166.133 269.867 166.06 269.866 165.985C269.865 165.909 269.837 165.837 269.787 165.781C269.737 165.724 269.668 165.688 269.594 165.678C269.519 165.668 269.443 165.685 269.38 165.726L239.63 189.046L234.008 179.987L229.108 182.841Z" fill="white"/>
<path d="M80.0322 112.379H56.2981C55.1999 112.359 54.1471 111.938 53.3385 111.195C52.5298 110.451 52.0215 109.437 51.9094 108.345L49.8562 84.6239C49.7992 84.1102 49.8524 83.5903 50.0122 83.0989C50.1721 82.6074 50.435 82.1557 50.7833 81.7739C51.1315 81.3921 51.5573 81.0889 52.032 80.8847C52.5068 80.6805 53.0196 80.5798 53.5363 80.5895H77.2442C78.3382 80.6143 79.3854 81.0381 80.1888 81.7811C80.9923 82.5242 81.4964 83.5351 81.6066 84.6239L83.6795 108.332C83.7381 108.844 83.6872 109.362 83.5302 109.853C83.3732 110.344 83.1136 110.795 82.7687 111.178C82.4237 111.561 82.0014 111.866 81.5296 112.073C81.0578 112.28 80.5474 112.384 80.0322 112.379Z" fill="#0B4266"/>
<path opacity="0.8" d="M80.0322 112.379H56.2981C55.1999 112.359 54.1471 111.938 53.3385 111.195C52.5298 110.451 52.0215 109.437 51.9094 108.345L49.8562 84.6239C49.7992 84.1102 49.8524 83.5903 50.0122 83.0989C50.1721 82.6074 50.435 82.1557 50.7833 81.7739C51.1315 81.3921 51.5573 81.0889 52.032 80.8847C52.5068 80.6805 53.0196 80.5798 53.5363 80.5895H77.2442C78.3382 80.6143 79.3854 81.0381 80.1888 81.7811C80.9923 82.5242 81.4964 83.5351 81.6066 84.6239L83.6795 108.332C83.7381 108.844 83.6872 109.362 83.5302 109.853C83.3732 110.344 83.1136 110.795 82.7687 111.178C82.4237 111.561 82.0014 111.866 81.5296 112.073C81.0578 112.28 80.5474 112.384 80.0322 112.379Z" fill="white"/>
<path d="M51.9224 98.8788C51.9224 98.8788 60.352 87.1429 66.5577 87.4447C72.7635 87.7464 83.0758 98.5967 83.0758 98.5967C83.0758 98.5967 67.8763 106.58 51.9224 98.8788Z" fill="white"/>
<path d="M52.1915 99.056L51.6602 98.6756C52.0013 98.1967 60.0373 87.0972 66.3218 87.0972H66.5776C72.849 87.3989 82.8858 97.908 83.3122 98.3541L82.8398 98.8068C82.7349 98.7018 72.5538 88.0418 66.5448 87.7532H66.3218C60.3522 87.7663 52.2702 98.9576 52.1915 99.056Z" fill="#263238"/>
<path d="M51.0501 99.2923C49.7775 99.2923 48.1244 98.8199 47.5405 97.0225C47.5136 96.9398 47.5206 96.8499 47.56 96.7724C47.5993 96.6949 47.6678 96.6362 47.7504 96.6092C47.7913 96.595 47.8347 96.5891 47.8778 96.592C47.921 96.5949 47.9632 96.6066 48.0018 96.6262C48.0404 96.6458 48.0746 96.673 48.1024 96.7061C48.1303 96.7393 48.1511 96.7777 48.1637 96.8191C48.9181 99.1414 51.7389 98.5838 51.857 98.5575C51.9421 98.5419 52.0299 98.5598 52.1021 98.6075C52.1742 98.6552 52.2251 98.729 52.244 98.8134C52.2527 98.8556 52.2529 98.8991 52.2447 98.9414C52.2365 98.9837 52.2201 99.024 52.1963 99.0599C52.1725 99.0958 52.1419 99.1267 52.1062 99.1509C52.0705 99.175 52.0304 99.1918 51.9882 99.2004C51.6793 99.2615 51.3651 99.2923 51.0501 99.2923Z" fill="#263238"/>
<path d="M56.0554 94.254C55.9822 94.2554 55.9106 94.2323 55.8521 94.1884C55.7537 94.1096 53.4249 92.3122 52.8345 90.482C52.8076 90.3993 52.8146 90.3094 52.8539 90.2319C52.8933 90.1544 52.9618 90.0957 53.0444 90.0687C53.1271 90.0435 53.2162 90.0513 53.2933 90.0905C53.3703 90.1296 53.4292 90.197 53.4577 90.2786C53.989 91.912 56.226 93.6504 56.2522 93.6636C56.3208 93.7167 56.3655 93.7949 56.3766 93.881C56.3877 93.967 56.3642 94.054 56.3113 94.1228C56.2814 94.1626 56.2428 94.1952 56.1985 94.2179C56.1542 94.2406 56.1052 94.253 56.0554 94.254Z" fill="#263238"/>
<path d="M60.8705 89.7869C60.7846 89.7819 60.7037 89.7447 60.6441 89.6827C60.5845 89.6206 60.5505 89.5384 60.549 89.4523C60.166 88.0235 59.6904 86.6211 59.1255 85.2539C58.9615 84.821 58.8434 84.5061 58.8172 84.4274C58.8041 84.3856 58.7996 84.3416 58.8038 84.2981C58.8079 84.2545 58.8208 84.2122 58.8416 84.1737C58.8624 84.1352 58.8907 84.1012 58.9248 84.0738C58.9589 84.0464 58.9981 84.0261 59.0402 84.0141C59.0816 84.002 59.1249 83.9982 59.1677 84.0029C59.2105 84.0076 59.252 84.0207 59.2898 84.0414C59.3276 84.0621 59.3609 84.09 59.3878 84.1236C59.4148 84.1572 59.4349 84.1958 59.447 84.2371C59.447 84.3159 59.5847 84.6045 59.7356 85.0178C60.654 87.4253 61.2182 89.0063 61.205 89.4655C61.2051 89.5088 61.1963 89.5517 61.1794 89.5916C61.1624 89.6315 61.1375 89.6675 61.1063 89.6975C61.075 89.7275 61.038 89.7509 60.9975 89.7663C60.957 89.7817 60.9138 89.7887 60.8705 89.7869Z" fill="#263238"/>
<path d="M66.5581 87.7729C66.4763 87.7703 66.3982 87.7384 66.338 87.683C66.2778 87.6276 66.2395 87.5524 66.2301 87.4711L65.7709 82.2231C65.763 82.1361 65.7901 82.0496 65.8461 81.9825C65.902 81.9155 65.9823 81.8734 66.0693 81.8656C66.1563 81.8578 66.2429 81.8848 66.3099 81.9408C66.377 81.9968 66.419 82.0771 66.4269 82.1641L66.8861 87.4514C66.8917 87.5371 66.8642 87.6216 66.8092 87.6875C66.7543 87.7535 66.6761 87.7958 66.5909 87.8057L66.5581 87.7729Z" fill="#263238"/>
<path d="M84.0601 98.9311C83.7391 98.9327 83.4187 98.9064 83.1023 98.8524C83.0601 98.8438 83.02 98.827 82.9843 98.8029C82.9486 98.7787 82.918 98.7478 82.8942 98.7119C82.8705 98.676 82.854 98.6357 82.8458 98.5934C82.8376 98.5511 82.8379 98.5076 82.8465 98.4654C82.8535 98.423 82.869 98.3825 82.8923 98.3464C82.9155 98.3102 82.9458 98.2792 82.9815 98.2553C83.0171 98.2313 83.0573 98.2149 83.0995 98.207C83.1417 98.1992 83.1851 98.2 83.227 98.2095C83.227 98.2095 84.8342 98.5178 85.8182 97.8225C86.0287 97.6693 86.2042 97.4731 86.3331 97.2469C86.4621 97.0207 86.5415 96.7697 86.566 96.5105C86.5725 96.4674 86.5873 96.426 86.6098 96.3887C86.6323 96.3514 86.6618 96.3189 86.6969 96.293C86.7319 96.2671 86.7717 96.2483 86.8139 96.2378C86.8562 96.2273 86.9001 96.2252 86.9432 96.2317C86.9863 96.2382 87.0276 96.253 87.065 96.2755C87.1023 96.2979 87.1348 96.3275 87.1607 96.3626C87.1866 96.3976 87.2053 96.4374 87.2159 96.4796C87.2264 96.5219 87.2285 96.5658 87.222 96.6089C87.1824 96.9541 87.0708 97.2871 86.8946 97.5865C86.7183 97.886 86.4812 98.1451 86.1986 98.3473C85.5612 98.7536 84.8156 98.9572 84.0601 98.9311Z" fill="#263238"/>
<path d="M78.1693 93.9064C78.1232 93.9067 78.0775 93.8969 78.0356 93.8776C77.9936 93.8584 77.9564 93.8301 77.9266 93.7949C77.8959 93.7644 77.8715 93.7281 77.8548 93.6881C77.8382 93.6482 77.8296 93.6053 77.8296 93.562C77.8296 93.5187 77.8382 93.4758 77.8548 93.4359C77.8715 93.3959 77.8959 93.3596 77.9266 93.3291C77.9266 93.3291 79.8946 91.5973 80.1045 89.9835C80.1191 89.8981 80.1662 89.8217 80.2359 89.7703C80.3056 89.7189 80.3926 89.6966 80.4785 89.708C80.5211 89.7144 80.5621 89.7292 80.5991 89.7514C80.636 89.7737 80.6682 89.8031 80.6938 89.8378C80.7194 89.8725 80.7379 89.912 80.7482 89.9539C80.7585 89.9957 80.7605 90.0393 80.754 90.0819C80.4785 91.9318 78.4449 93.7424 78.3596 93.8211C78.3083 93.8712 78.2409 93.9015 78.1693 93.9064Z" fill="#263238"/>
<path d="M72.626 90.0949H72.5669C72.4814 90.0789 72.4055 90.0302 72.3553 89.9592C72.3051 89.8882 72.2845 89.8004 72.298 89.7144C72.298 89.6751 73.0196 85.457 73.1508 84.5911C73.1572 84.548 73.1721 84.5066 73.1946 84.4693C73.217 84.432 73.2466 84.3994 73.2816 84.3735C73.3166 84.3477 73.3564 84.3289 73.3987 84.3184C73.441 84.3079 73.4849 84.3058 73.528 84.3123C73.571 84.3187 73.6124 84.3336 73.6497 84.3561C73.6871 84.3785 73.7196 84.4081 73.7455 84.4431C73.7714 84.4781 73.7901 84.5179 73.8006 84.5602C73.8111 84.6025 73.8132 84.6464 73.8068 84.6895C73.6756 85.5619 72.9605 89.7866 72.954 89.8259C72.94 89.9024 72.8993 89.9713 72.8393 90.0206C72.7792 90.0698 72.7036 90.0962 72.626 90.0949Z" fill="#263238"/>
<path d="M72.8188 100.253C75.5346 97.4163 75.2242 92.7118 72.1256 89.7454C69.0269 86.7791 64.3133 86.6742 61.5976 89.5112C58.8818 92.3481 59.1921 97.0526 62.2908 100.019C65.3895 102.985 70.103 103.09 72.8188 100.253Z" fill="#0B4266"/>
<path opacity="0.3" d="M70.2838 94.8774C70.2936 94.7113 70.2936 94.5449 70.2838 94.3788C70.1957 93.5236 69.7973 92.7302 69.1639 92.1488C68.5305 91.5674 67.706 91.2382 66.8464 91.2235C66.4423 91.2164 66.0414 91.2955 65.6703 91.4554C65.2992 91.6153 64.9663 91.8523 64.6939 92.1508C64.4215 92.4493 64.2157 92.8023 64.0903 93.1865C63.9649 93.5707 63.9227 93.9771 63.9665 94.3788C63.9774 94.548 64.0082 94.7154 64.0584 94.8774H59.7813C59.6767 93.9315 59.775 92.9741 60.0694 92.0691C60.3639 91.1641 60.8479 90.3323 61.4891 89.629C62.1303 88.9258 62.914 88.3672 63.788 87.9906C64.662 87.614 65.6062 87.428 66.5577 87.4449C68.581 87.4823 70.5207 88.2588 72.0108 89.628C73.5008 90.9973 74.4383 92.8645 74.6462 94.8774H70.2838Z" fill="black"/>
<path opacity="0.7" d="M70.2776 94.3784C70.2874 94.5445 70.2874 94.711 70.2776 94.877C70.2305 95.6072 69.9033 96.2911 69.3644 96.786C68.8254 97.281 68.1163 97.5488 67.3847 97.5338C66.6135 97.5194 65.8686 97.2514 65.265 96.7711C64.6615 96.2909 64.2329 95.6252 64.0456 94.877C63.9955 94.715 63.9647 94.5477 63.9538 94.3784C63.91 93.9767 63.9522 93.5703 64.0776 93.1861C64.203 92.802 64.4088 92.4489 64.6812 92.1504C64.9536 91.852 65.2864 91.6149 65.6576 91.455C66.0287 91.2951 66.4296 91.216 66.8336 91.2231C67.6944 91.2362 68.5205 91.5647 69.1553 92.1463C69.7901 92.7278 70.1894 93.5221 70.2776 94.3784Z" fill="black"/>
<path opacity="0.7" d="M71.9898 91.2824C72.0252 91.6099 71.9905 91.9411 71.8881 92.2542C71.7857 92.5672 71.6179 92.8549 71.3958 93.0981C71.1736 93.3413 70.9023 93.5345 70.5999 93.6648C70.2974 93.7951 69.9706 93.8596 69.6413 93.854C68.942 93.8401 68.2719 93.571 67.7571 93.0973C67.2424 92.6237 66.9186 91.9782 66.8467 91.2824C66.8103 90.9548 66.8442 90.6231 66.9462 90.3096C67.0482 89.9961 67.216 89.708 67.4383 89.4645C67.6606 89.2211 67.9324 89.0279 68.2354 88.898C68.5384 88.768 68.8656 88.7042 69.1952 88.7109C69.895 88.7234 70.5659 88.992 71.0809 89.466C71.5959 89.9399 71.9193 90.5861 71.9898 91.2824Z" fill="white"/>
<path d="M61.8346 77.6572H59.25V78.3132H61.8346V77.6572Z" fill="#0B4266"/>
<path d="M72.9408 77.6572H64.5112V78.3132H72.9408V77.6572Z" fill="#0B4266"/>
<path d="M181.056 125.723L181.279 125.992L181.581 126.339C181.797 126.569 182.007 126.812 182.237 127.035C182.689 127.507 183.181 127.966 183.68 128.432C184.676 129.351 185.721 130.216 186.809 131.023C187.918 131.85 189.085 132.604 190.253 133.352C190.909 133.706 191.447 134.08 192.064 134.421L193.487 135.208C193.694 135.3 193.927 135.314 194.143 135.248C194.602 135.11 197.239 132.499 198.079 131.528C199.942 129.396 202.763 126.589 204.285 124.201L205.984 126.543C204.91 129.468 203.485 132.252 201.74 134.834C200.801 136.23 199.675 137.491 198.394 138.58C197.625 139.228 196.757 139.749 195.822 140.122C194.638 140.594 193.338 140.693 192.096 140.404C191.775 140.326 191.462 140.22 191.158 140.089L190.568 139.833L189.505 139.348C188.79 139.033 188.101 138.652 187.406 138.305C186.016 137.563 184.667 136.746 183.365 135.858C182.053 134.955 180.793 133.979 179.593 132.932C178.97 132.388 178.412 131.837 177.842 131.24C177.559 130.944 177.271 130.636 176.995 130.315L176.589 129.816C176.438 129.632 176.326 129.495 176.123 129.213L181.056 125.723Z" fill="#FFB573"/>
<path d="M204.016 124.561L207.06 118.054L209.966 123.262C209.966 123.262 208.057 126.542 205.984 126.542L204.016 124.561Z" fill="#FFB573"/>
<path d="M210.51 115.351L213.58 119.3L209.992 123.256L207.086 118.054L210.51 115.351Z" fill="#FFB573"/>
<path d="M209.441 125.053H214.276C214.412 125.052 214.543 125.001 214.644 124.909C214.745 124.817 214.807 124.69 214.82 124.555L215.824 112.963C215.831 112.887 215.823 112.811 215.799 112.739C215.775 112.666 215.736 112.6 215.684 112.544C215.633 112.488 215.571 112.443 215.501 112.412C215.431 112.381 215.356 112.366 215.28 112.366H210.451C210.314 112.367 210.182 112.42 210.081 112.513C209.981 112.607 209.918 112.734 209.907 112.871L208.89 124.456C208.884 124.532 208.893 124.609 208.918 124.681C208.943 124.754 208.983 124.82 209.034 124.876C209.086 124.932 209.149 124.977 209.219 125.007C209.289 125.038 209.365 125.054 209.441 125.053Z" fill="#0B4266"/>
<path opacity="0.3" d="M209.494 123.892H214.335L215.24 113.534H210.399L209.494 123.892Z" fill="white"/>
<path d="M209.179 122.423L210.038 121.983C210.475 121.761 210.88 121.478 211.238 121.144L211.396 120.573C211.304 120.421 211.166 120.302 211.002 120.235C210.838 120.168 210.656 120.155 210.484 120.199L209.769 120.396L206.22 120.665L206.135 122.16L207.171 123.761H207.525C207.916 123.775 208.299 123.647 208.602 123.401C208.906 123.155 209.111 122.808 209.179 122.423Z" fill="#FFB573"/>
<path d="M174.863 119.392C177.323 118.946 194.675 133.988 194.675 133.988L189.532 141.532C189.532 141.532 170.56 128.32 171.164 125.132C171.747 121.78 171.282 120.048 174.863 119.392Z" fill="#263238"/>
<path opacity="0.2" d="M177.054 124.201L176.864 132.073C178.832 133.601 185.943 139.053 185.943 139.053L177.054 124.201Z" fill="black"/>
<path d="M163.298 275.723L169.117 276.294L170.967 262.8L165.141 262.229L163.298 275.723Z" fill="#FFB573"/>
<path d="M106.01 196.544L104.521 202.212L117.109 207.637L119.72 201.884L106.01 196.544Z" fill="#FFB573"/>
<path d="M173.282 277.488C173.783 277.55 174.29 277.439 174.719 277.173C174.812 277.093 174.884 276.991 174.929 276.877C174.975 276.763 174.993 276.64 174.981 276.517C174.981 276.441 174.961 276.366 174.921 276.3C174.882 276.234 174.826 276.18 174.758 276.143C174.057 275.724 171.682 276.852 171.413 276.977C171.387 276.989 171.366 277.008 171.352 277.033C171.338 277.058 171.331 277.086 171.334 277.114C171.338 277.143 171.351 277.17 171.371 277.192C171.391 277.213 171.417 277.227 171.446 277.232C172.049 277.373 172.664 277.459 173.282 277.488ZM174.339 276.314C174.43 276.307 174.521 276.328 174.601 276.373C174.629 276.387 174.652 276.409 174.668 276.436C174.684 276.462 174.693 276.493 174.693 276.524C174.7 276.606 174.687 276.688 174.657 276.765C174.626 276.841 174.578 276.909 174.516 276.963C174.155 277.272 173.204 277.298 171.892 277.049C172.665 276.662 173.5 276.412 174.358 276.307L174.339 276.314Z" fill="#0B4266"/>
<path d="M171.472 277.206H171.524C172.233 276.911 173.656 275.691 173.564 275.022C173.539 274.905 173.474 274.801 173.381 274.727C173.288 274.653 173.172 274.614 173.053 274.615C172.916 274.589 172.776 274.594 172.641 274.628C172.506 274.662 172.38 274.725 172.272 274.812C171.518 275.396 171.341 276.976 171.327 277.035C171.321 277.059 171.321 277.084 171.327 277.108C171.332 277.132 171.344 277.155 171.36 277.173C171.375 277.186 171.393 277.196 171.412 277.201C171.432 277.207 171.452 277.209 171.472 277.206ZM172.921 274.864H173C173.256 274.903 173.269 275.002 173.269 275.035C173.328 275.435 172.357 276.406 171.629 276.793C171.699 276.128 171.979 275.503 172.429 275.008C172.575 274.903 172.756 274.858 172.935 274.884L172.921 274.864Z" fill="#0B4266"/>
<path d="M168.828 273.946L163.58 274.169C163.467 274.17 163.358 274.213 163.275 274.289C163.191 274.365 163.139 274.469 163.127 274.582L161.868 281.91C161.861 282.034 161.879 282.159 161.92 282.277C161.961 282.394 162.026 282.503 162.109 282.595C162.193 282.688 162.294 282.763 162.407 282.817C162.52 282.87 162.642 282.901 162.767 282.907H162.872C165.161 282.789 166.263 282.618 169.163 282.52C170.94 282.461 176.379 283.103 178.806 282.552C181.233 282.001 180.774 279.594 179.731 279.614C176.359 279.679 172.469 277.482 170.547 274.91C170.212 274.694 169.195 273.926 168.828 273.946Z" fill="#263238"/>
<path d="M107.197 202.953L109.873 198.407C109.934 198.311 109.956 198.196 109.936 198.084C109.915 197.972 109.853 197.872 109.762 197.804L104.304 192.772C104.101 192.629 103.85 192.571 103.605 192.61C103.36 192.649 103.14 192.783 102.992 192.982L102.933 193.074C101.792 195.042 101.339 196.078 99.8497 198.565C98.9313 200.093 95.4283 204.337 94.6017 206.653C93.7752 208.969 96.0187 209.933 96.5697 209.028C98.3475 206.155 102.303 204.082 105.518 203.832C105.826 203.714 107.013 203.275 107.197 202.953Z" fill="#263238"/>
<path opacity="0.2" d="M170.967 262.8L170.015 269.761L164.19 269.19L165.135 262.236L170.967 262.8Z" fill="black"/>
<path opacity="0.2" d="M123.59 203.288L120.901 209.356L112.792 205.774L114.859 199.995L123.59 203.288Z" fill="black"/>
<path d="M178.583 126.313C181.909 131.968 177.842 136.737 174.444 153.635L152.52 153.694C152.874 144.589 152.835 137.229 148.951 119.313C148.851 118.872 148.851 118.413 148.952 117.972C149.053 117.531 149.253 117.118 149.536 116.765C149.82 116.411 150.179 116.127 150.588 115.932C150.997 115.737 151.444 115.637 151.897 115.64C153.707 115.64 155.984 115.699 158.299 115.935C161.952 116.234 165.579 116.784 169.156 117.581C171.096 118.049 173.003 118.645 174.863 119.366C175.992 119.746 177.35 122.816 178.583 126.313Z" fill="#263238"/>
<path d="M175.257 154.777C175.257 154.777 187.57 190.378 187.275 207.499C187.104 217.307 186.363 235.583 183.404 248.434C180.99 258.93 171.15 265.621 171.15 265.621L163.278 265.155C163.278 265.155 159.014 249.149 159.756 242.779C161.232 230.099 165.607 220.573 165.076 208.929C164.236 189.866 158.594 154.481 158.594 154.481L175.257 154.777Z" fill="#0B4266"/>
<path d="M161.697 267.208L172.817 267.864L173.827 264.525L161.402 263.377L161.697 267.208Z" fill="#263238"/>
<path opacity="0.2" d="M163.101 226.7C163.101 226.7 163.101 226.635 163.167 226.641C170.153 227.297 174.975 217.241 173.827 203.471L170.121 168.375L163.101 226.7Z" fill="black"/>
<path d="M169.733 154.482C169.733 154.482 179.521 217.084 159.172 224.129C148.433 228.196 139.4 223.788 128.7 219.052C122.514 216.316 114.787 208.91 114.787 208.91L117.758 200.821C123.103 199.376 128.695 199.094 134.158 199.995C144.589 201.609 145.028 204.587 148.735 202.337C156.528 183.077 143.119 167.851 152.231 154.449L169.733 154.482Z" fill="#0B4266"/>
<path d="M118.343 199.287L114.367 209.776L117.293 212.013L122.016 199.529L118.343 199.287Z" fill="#263238"/>
<path d="M116.702 142.719C115.712 144.182 110.687 143.192 110.687 143.192L109.618 136.966L115.791 139.439L116.702 142.719Z" fill="#FFB573"/>
<path d="M110.864 136.645L111.822 143.113L108.115 143.664C107.914 143.683 107.714 143.626 107.553 143.504C107.391 143.383 107.281 143.206 107.243 143.008L105.819 138.416C105.795 138.309 105.813 138.197 105.869 138.103C105.925 138.009 106.015 137.94 106.121 137.911L110.864 136.645Z" fill="#FFB573"/>
<path d="M109.204 139.577L111.317 139.951L113.318 138.449L112.544 137.898C112.019 137.524 111.65 136.971 111.507 136.343C111.358 135.685 111.268 135.016 111.238 134.342V134.119C111.213 133.921 111.124 133.737 110.984 133.595C110.844 133.453 110.661 133.361 110.464 133.332L109.939 133.719C109.611 134.434 109.847 135.267 109.808 135.825L109.723 136.907L108.876 137.275L109.204 139.577Z" fill="#FFB573"/>
<path d="M150.007 118.08L137.596 135.136L114.8 139.636V143.375C114.8 143.375 136.225 144.963 141.04 142.162C145.855 139.361 153.93 122.37 153.93 122.37L150.007 118.08Z" fill="#FFB573"/>
<path d="M149.863 85.2802C144.654 83.5352 138.613 86.7693 136.231 91.7156C133.85 96.6618 134.683 102.73 137.366 107.519C138.173 108.968 139.137 110.333 139.8 111.848C140.536 113.35 140.697 115.07 140.253 116.683C139.715 118.251 139.164 119.254 137.222 119.005C137.222 119.005 137.222 117.929 137.963 118.061C137.963 118.061 136.389 118.933 135.772 118.362C136.487 119.464 138.396 119.064 139.006 117.897C139.918 116.158 138.239 113.803 136.271 113.823C134.303 113.842 132.702 115.837 132.768 117.798C132.85 118.779 133.199 119.719 133.777 120.516C134.355 121.312 135.14 121.936 136.048 122.318C135.516 122.406 134.97 122.315 134.495 122.06C134.021 121.804 133.644 121.399 133.424 120.908C134.316 123.243 137.228 124.273 139.688 123.814C142.148 123.354 144.228 121.78 146.157 120.186C148.781 118.034 151.464 115.312 151.405 111.947C151.345 109.434 149.732 107.276 148.374 105.157C147.016 103.038 145.829 100.453 146.694 98.0984C147.423 96.0976 149.404 94.8906 151.149 93.6704C152.408 92.798 154.967 90.8496 154.665 89.0063C154.357 87.2482 151.339 85.7722 149.863 85.2802Z" fill="#263238"/>
<path d="M138.127 143.664L134.69 134.565L135.477 134.631C136.114 134.684 136.753 134.553 137.317 134.253C137.881 133.953 138.347 133.497 138.659 132.939C141.283 128.268 148.059 116.414 149.968 115.824C152.691 115.017 155.492 117.195 156.528 120.416C157.309 122.784 149.312 132.939 145.625 138.711C142.352 143.822 138.127 143.664 138.127 143.664Z" fill="#263238"/>
<path d="M104.599 205.945V206.017C104.647 206.143 104.727 206.255 104.83 206.342C104.933 206.43 105.057 206.489 105.19 206.516C105.269 206.541 105.354 206.545 105.435 206.528C105.517 206.51 105.593 206.472 105.655 206.417C106.206 205.912 105.852 203.793 105.819 203.583C105.816 203.556 105.804 203.531 105.785 203.511C105.766 203.491 105.741 203.477 105.714 203.472C105.689 203.469 105.663 203.472 105.639 203.481C105.615 203.49 105.594 203.505 105.577 203.524C105.13 204.154 104.422 205.276 104.599 205.945ZM105.609 203.977C105.727 204.817 105.78 205.945 105.472 206.221C105.439 206.238 105.403 206.248 105.367 206.248C105.33 206.248 105.294 206.238 105.262 206.221C105.174 206.204 105.091 206.165 105.022 206.108C104.953 206.05 104.9 205.976 104.868 205.893C104.75 205.538 104.999 204.817 105.609 203.964V203.977Z" fill="#0B4266"/>
<path d="M105.616 203.859C105.787 204.567 106.456 205.774 107.046 205.919C107.154 205.94 107.266 205.925 107.363 205.875C107.461 205.825 107.539 205.743 107.584 205.643C107.636 205.55 107.666 205.446 107.672 205.339C107.679 205.233 107.663 205.126 107.624 205.027C107.355 204.213 105.806 203.544 105.741 203.511C105.72 203.5 105.696 203.494 105.672 203.494C105.648 203.494 105.624 203.5 105.603 203.511C105.584 203.527 105.569 203.547 105.56 203.57C105.55 203.593 105.547 203.618 105.551 203.642C105.567 203.716 105.589 203.789 105.616 203.859ZM107.4 205.171C107.414 205.229 107.416 205.289 107.405 205.347C107.395 205.406 107.374 205.462 107.341 205.512C107.256 205.669 107.171 205.669 107.105 205.656C106.705 205.578 106.095 204.587 105.898 203.898C106.403 204.154 107.21 204.633 107.381 205.131C107.376 205.144 107.376 205.158 107.381 205.171H107.4Z" fill="#0B4266"/>
<path d="M152.441 152.586L151.831 154.718C151.752 154.882 151.943 155.052 152.218 155.046H174.85C175.067 155.046 175.244 154.934 175.257 154.803L175.467 152.671C175.467 152.527 175.296 152.396 175.06 152.402H152.822C152.748 152.396 152.674 152.41 152.607 152.443C152.54 152.475 152.483 152.524 152.441 152.586Z" fill="#0B4266"/>
<path opacity="0.5" d="M152.441 152.586L151.831 154.718C151.752 154.882 151.943 155.052 152.218 155.046H174.85C175.067 155.046 175.244 154.934 175.257 154.803L175.467 152.671C175.467 152.527 175.296 152.396 175.06 152.402H152.822C152.748 152.396 152.674 152.41 152.607 152.443C152.54 152.475 152.483 152.524 152.441 152.586Z" fill="white"/>
<path d="M156.784 155.243H156.128C156.003 155.243 155.898 155.177 155.912 155.098L156.207 152.324C156.207 152.245 156.331 152.179 156.463 152.179H157.119C157.243 152.179 157.342 152.245 157.335 152.33L157.04 155.098C157 155.177 156.882 155.249 156.784 155.243Z" fill="#0B4266"/>
<path d="M173.099 155.243H172.443C172.325 155.243 172.22 155.177 172.233 155.098L172.528 152.33C172.528 152.245 172.646 152.179 172.771 152.179H173.427C173.551 152.179 173.656 152.245 173.643 152.324L173.348 155.092C173.335 155.177 173.23 155.243 173.099 155.243Z" fill="#0B4266"/>
<path d="M165.614 155.23H164.958C164.833 155.23 164.728 155.164 164.741 155.085L165.037 152.317C165.037 152.232 165.161 152.166 165.286 152.166H165.942C166.066 152.166 166.165 152.232 166.158 152.31L165.857 155.079C165.857 155.164 165.745 155.23 165.614 155.23Z" fill="#0B4266"/>
<path d="M159.323 103.996C160.018 107.571 160.7 114.026 158.273 115.968C158.273 115.968 159.244 119.635 165.732 120.613C172.895 121.688 169.137 117.608 169.137 117.608C165.233 116.066 165.332 113.246 166.001 110.648L159.323 103.996Z" fill="#FFB573"/>
<path d="M158.299 115.935C161.761 116.155 165.202 116.633 168.592 117.365L173.499 118.828C174.371 120.586 172.941 124.201 168.835 124.89C168.835 124.89 158.49 126.313 155.439 115.66L158.299 115.935Z" fill="#FFB573"/>
<path opacity="0.2" d="M162.032 106.718L165.968 110.654C165.802 111.264 165.695 111.888 165.647 112.517C164.151 112.078 161.75 110.431 161.586 108.857C161.588 108.121 161.739 107.393 162.032 106.718Z" fill="black"/>
<path d="M154.941 99.4826C156.699 105.032 157.315 107.42 160.917 109.605C166.283 112.885 172.725 109.526 172.659 103.569C172.607 98.2034 169.753 90.0296 163.659 89.1375C162.319 88.9367 160.951 89.0821 159.683 89.5598C158.415 90.0375 157.291 90.8316 156.417 91.8666C155.544 92.9015 154.949 94.1429 154.691 95.4726C154.432 96.8022 154.518 98.1759 154.941 99.4629V99.4826Z" fill="#FFB573"/>
<path d="M168.185 98.6167C168.806 99.5908 169.559 100.474 170.422 101.241C170.22 101.459 169.973 101.631 169.698 101.745C169.422 101.858 169.126 101.91 168.828 101.897L168.185 98.6167Z" fill="#ED893E"/>
<path d="M167.562 104.862C167.784 104.837 168.004 104.793 168.218 104.731C168.235 104.727 168.251 104.72 168.265 104.71C168.279 104.7 168.291 104.687 168.3 104.672C168.309 104.658 168.315 104.641 168.318 104.624C168.321 104.607 168.32 104.59 168.316 104.573C168.307 104.539 168.285 104.509 168.254 104.491C168.224 104.473 168.187 104.467 168.152 104.475C167.592 104.629 167.004 104.65 166.434 104.536C165.865 104.422 165.33 104.177 164.872 103.819C164.845 103.792 164.809 103.777 164.771 103.777C164.733 103.777 164.696 103.792 164.669 103.819C164.656 103.832 164.646 103.847 164.638 103.864C164.631 103.881 164.628 103.899 164.628 103.917C164.628 103.935 164.631 103.954 164.638 103.971C164.646 103.987 164.656 104.003 164.669 104.016C165.072 104.34 165.535 104.581 166.031 104.727C166.528 104.872 167.048 104.918 167.562 104.862Z" fill="#263238"/>
<path d="M153.032 88.4026C152.309 88.8702 151.709 89.5045 151.282 90.2522C150.855 90.9999 150.613 91.8391 150.578 92.6994C150.548 93.0283 150.6 93.3596 150.729 93.6637C150.794 93.8142 150.897 93.945 151.028 94.0429C151.16 94.1408 151.314 94.2023 151.477 94.2213C151.976 94.2213 152.343 93.7752 152.618 93.3554L153.891 91.3874C154.415 90.7481 154.856 90.0449 155.203 89.2947C155.629 88.0024 153.812 87.904 153.032 88.4026Z" fill="#0B4266"/>
<path d="M153.655 89.708C150.171 93.7358 148.61 104.881 158.817 107.991C160.523 106.639 157.768 104.179 156.6 101.07C155.833 99.0363 159.723 95.2381 161.238 93.6768C162.753 92.1155 164.151 89.8654 166.289 90.2262C166.832 90.4077 167.417 90.4237 167.969 90.2721C169.668 89.5046 168.841 88.4878 167.969 87.7793C166.631 86.789 165.037 86.2017 163.377 86.0869C161.585 85.8758 159.769 86.0941 158.079 86.7238C156.388 87.3535 154.872 88.3764 153.655 89.708Z" fill="#263238"/>
<path d="M164.984 88.3566C169.084 91.7744 163.672 91.8597 160.805 94.0245C158.057 96.104 159.985 99.5086 155.334 101.09C151.536 102.198 150.657 101.529 149.607 100.794C150.908 100.569 152.098 99.9203 152.991 98.9485C153.885 97.9768 154.432 96.7368 154.547 95.4217C154.869 92.9289 160.3 84.3944 164.984 88.3566Z" fill="#263238"/>
<path d="M154.324 104.147C154.966 105.072 155.946 105.708 157.053 105.918C158.522 106.174 159.087 104.829 158.581 103.517C158.103 102.336 156.771 100.781 155.347 101.116C154.858 101.243 154.439 101.558 154.182 101.994C153.925 102.429 153.851 102.948 153.976 103.438C154.043 103.695 154.161 103.936 154.324 104.147Z" fill="#FFB573"/>
<path d="M164.282 88.7044C165.076 90.7249 167.365 90.4559 169.058 92.5682C170.101 93.8802 172.148 89.8327 169.36 88.2386C166.572 86.6446 163.036 85.5425 164.282 88.7044Z" fill="#263238"/>
<path d="M161.868 97.2324C161.926 97.2387 161.985 97.2262 162.036 97.1967C162.087 97.1672 162.127 97.1222 162.15 97.0684C162.688 95.8745 164.302 95.5727 164.315 95.5727C164.387 95.5569 164.45 95.5141 164.492 95.4531C164.533 95.3921 164.55 95.3176 164.538 95.2447C164.524 95.1736 164.482 95.111 164.422 95.0704C164.362 95.0299 164.288 95.0147 164.216 95.0283C164.131 95.0283 162.294 95.4153 161.638 96.8585C161.609 96.9256 161.607 97.0015 161.633 97.0701C161.659 97.1386 161.71 97.1945 161.776 97.2259H161.868V97.2324Z" fill="#263238"/>
<path d="M170.396 94.8183C170.444 94.8218 170.492 94.812 170.535 94.79C170.578 94.768 170.614 94.7347 170.639 94.6936C170.66 94.6641 170.674 94.6307 170.682 94.5954C170.69 94.5601 170.69 94.5236 170.683 94.4881C170.677 94.4525 170.663 94.4188 170.643 94.3887C170.623 94.3587 170.597 94.333 170.567 94.3132C170.203 94.0615 169.785 93.9009 169.346 93.8449C168.908 93.789 168.462 93.8393 168.048 93.9917C168.013 94.0052 167.982 94.0257 167.955 94.0519C167.929 94.0781 167.909 94.1094 167.895 94.1439C167.882 94.1784 167.875 94.2153 167.877 94.2523C167.878 94.2894 167.887 94.3257 167.903 94.3591C167.932 94.4259 167.986 94.4786 168.054 94.5057C168.121 94.5327 168.197 94.5319 168.264 94.5034C168.59 94.3894 168.939 94.3549 169.281 94.4028C169.624 94.4507 169.95 94.5797 170.232 94.7789C170.283 94.8037 170.339 94.8172 170.396 94.8183Z" fill="#263238"/>
<path d="M197.364 130.728L193.52 132.913L189.525 141.506C189.525 141.506 193.382 143.96 196.426 141.972C199.47 139.984 197.364 130.728 197.364 130.728Z" fill="#0B4266"/>
<path opacity="0.5" d="M197.364 130.728L193.52 132.913L189.525 141.506C189.525 141.506 193.382 143.96 196.426 141.972C199.47 139.984 197.364 130.728 197.364 130.728Z" fill="white"/>
<path d="M130.144 133.385L134.69 134.697L139 143.612C139 143.612 135.536 146.82 131.784 143.756C128.976 141.434 130.144 133.385 130.144 133.385Z" fill="#0B4266"/>
<g opacity="0.5">
<path d="M130.144 133.385L134.69 134.697L139 143.612C139 143.612 135.536 146.82 131.784 143.756C128.976 141.434 130.144 133.385 130.144 133.385Z" fill="white"/>
</g>
<path d="M170.134 97.0421C170.449 96.983 170.79 97.3373 170.862 97.8227C170.934 98.3082 170.757 98.7542 170.442 98.8067C170.127 98.8592 169.786 98.5115 169.714 98.0261C169.642 97.5406 169.819 97.088 170.134 97.0421Z" fill="#263238"/>
<path d="M171.104 96.5635L169.996 97.108C170.665 97.5803 171.104 96.5635 171.104 96.5635Z" fill="#263238"/>
<path d="M164.656 98.1705C164.971 98.1115 165.312 98.4657 165.384 98.9511C165.456 99.4366 165.279 99.8827 164.964 99.9351C164.649 99.9876 164.308 99.6399 164.236 99.1545C164.164 98.6691 164.328 98.2295 164.656 98.1705Z" fill="#263238"/>
<path d="M165.614 97.6919L164.505 98.2364C165.174 98.7087 165.614 97.6919 165.614 97.6919Z" fill="#263238"/>
<path d="M136.881 123.269C136.263 123.273 135.651 123.157 135.077 122.928C133.043 122.095 132.099 119.983 132.453 117.123C132.464 117.037 132.509 116.959 132.578 116.906C132.647 116.853 132.734 116.829 132.82 116.841C132.863 116.845 132.905 116.859 132.942 116.88C132.98 116.901 133.013 116.93 133.039 116.964C133.066 116.998 133.085 117.038 133.096 117.08C133.107 117.121 133.109 117.165 133.102 117.208C132.761 119.747 133.562 121.61 135.3 122.318C136.309 122.663 137.401 122.681 138.421 122.367C139.44 122.054 140.334 121.426 140.974 120.573C142.621 118.382 142.083 115.273 139.518 112.045C132.801 103.616 133.247 99.1351 134.198 95.5927C135.575 90.4496 139.61 84.5588 151.024 85.6936C151.111 85.7023 151.191 85.7452 151.247 85.8129C151.302 85.8806 151.328 85.9674 151.319 86.0544C151.311 86.1414 151.268 86.2214 151.2 86.2768C151.133 86.3321 151.046 86.3583 150.959 86.3496C140.01 85.2607 136.14 90.876 134.828 95.7698C133.883 99.3122 133.516 103.452 140.03 111.645C143.966 116.585 142.372 119.819 141.499 120.973C140.953 121.68 140.254 122.255 139.454 122.652C138.654 123.05 137.774 123.261 136.881 123.269Z" fill="#263238"/>
</svg>
